<svg width="180" height="180" viewBox="0 0 180 180" fill="none" xmlns="http://www.w3.org/2000/svg">
<circle cx="90" cy="90" r="87.5" fill="#F8F7F9" stroke="#080F0F" stroke-width="5"/>
<mask id="path-2-inside-1" fill="white">
<path d="M90 168.612C90 169.931 88.93 171.004 87.6115 170.965C66.9953 170.357 47.3509 161.902 32.7243 147.276C17.5339 132.085 9 111.483 9 90C9 68.5175 17.5339 47.9148 32.7243 32.7244C47.3509 18.0978 66.9953 9.64274 87.6115 9.03518C88.93 8.99632 90 10.0693 90 11.3884C90 12.7075 88.9299 13.7729 87.6115 13.8142C68.2625 14.4202 49.8327 22.3714 36.102 36.1021C21.8074 50.3967 13.7768 69.7844 13.7768 90C13.7768 110.216 21.8074 129.603 36.1021 143.898C49.8327 157.629 68.2625 165.58 87.6115 166.186C88.9299 166.227 90 167.293 90 168.612Z"/>
</mask>
<path d="M90 168.612C90 169.931 88.93 171.004 87.6115 170.965C66.9953 170.357 47.3509 161.902 32.7243 147.276C17.5339 132.085 9 111.483 9 90C9 68.5175 17.5339 47.9148 32.7243 32.7244C47.3509 18.0978 66.9953 9.64274 87.6115 9.03518C88.93 8.99632 90 10.0693 90 11.3884C90 12.7075 88.9299 13.7729 87.6115 13.8142C68.2625 14.4202 49.8327 22.3714 36.102 36.1021C21.8074 50.3967 13.7768 69.7844 13.7768 90C13.7768 110.216 21.8074 129.603 36.1021 143.898C49.8327 157.629 68.2625 165.58 87.6115 166.186C88.9299 166.227 90 167.293 90 168.612Z" fill="#080F0F" stroke="#080F0F" stroke-width="2" mask="url(#path-2-inside-1)"/>
<path d="M54.356 72.002C54.356 72.5233 54.2027 72.9833 53.896 73.382C53.62 73.7807 53.2827 74.072 52.884 74.256C52.0867 73.7347 51.1667 73.244 50.124 72.784C49.112 72.324 47.824 72.094 46.26 72.094C44.9107 72.094 43.6687 72.324 42.534 72.784C41.43 73.244 40.464 73.9187 39.636 74.808C38.8387 75.6973 38.21 76.8013 37.75 78.12C37.29 79.4387 37.06 80.9567 37.06 82.674C37.06 86.1393 37.9187 88.7613 39.636 90.54C41.3533 92.3187 43.6227 93.208 46.444 93.208C47.9467 93.208 49.25 92.9933 50.354 92.564C51.458 92.1347 52.4087 91.644 53.206 91.092C53.5433 91.3067 53.85 91.6133 54.126 92.012C54.4327 92.4107 54.586 92.8707 54.586 93.392C54.586 93.8213 54.4633 94.22 54.218 94.588C54.0033 94.956 53.6353 95.2933 53.114 95.6C52.4393 96.0293 51.5193 96.4127 50.354 96.75C49.1887 97.0873 47.7167 97.256 45.938 97.256C43.9753 97.256 42.1507 96.9647 40.464 96.382C38.7773 95.7687 37.3053 94.864 36.048 93.668C34.7907 92.4413 33.794 90.9233 33.058 89.114C32.3527 87.274 32 85.1273 32 82.674C32 80.282 32.368 78.166 33.104 76.326C33.84 74.486 34.8213 72.9527 36.048 71.726C37.3053 70.4993 38.762 69.5793 40.418 68.966C42.074 68.322 43.8373 68 45.708 68C47.0267 68 48.2073 68.1227 49.25 68.368C50.3233 68.5827 51.228 68.874 51.964 69.242C52.7307 69.61 53.3133 70.0393 53.712 70.53C54.1413 71.0207 54.356 71.5113 54.356 72.002Z" fill="#080F0F"/>
<path d="M85.6931 82.628C85.6931 85.02 85.3405 87.136 84.6351 88.976C83.9605 90.7853 83.0098 92.3033 81.7831 93.53C80.5565 94.7567 79.1151 95.692 77.4591 96.336C75.8031 96.9493 73.9938 97.256 72.0311 97.256C70.0685 97.256 68.2438 96.9493 66.5571 96.336C64.9011 95.692 63.4598 94.7567 62.2331 93.53C61.0371 92.3033 60.0865 90.7853 59.3811 88.976C58.7065 87.136 58.3691 85.02 58.3691 82.628C58.3691 80.236 58.7218 78.1353 59.4271 76.326C60.1325 74.5167 61.0985 72.9987 62.3251 71.772C63.5518 70.5147 64.9931 69.5793 66.6491 68.966C68.3358 68.322 70.1298 68 72.0311 68C73.9631 68 75.7571 68.322 77.4131 68.966C79.0691 69.5793 80.5105 70.5147 81.7371 71.772C82.9638 72.9987 83.9298 74.5167 84.6351 76.326C85.3405 78.1353 85.6931 80.236 85.6931 82.628ZM80.6791 82.628C80.6791 79.1933 79.8971 76.5867 78.3331 74.808C76.7691 72.9987 74.6685 72.094 72.0311 72.094C69.4551 72.094 67.3698 72.9987 65.7751 74.808C64.2111 76.6173 63.4291 79.224 63.4291 82.628C63.4291 86.0627 64.2111 88.6847 65.7751 90.494C67.3391 92.3033 69.4245 93.208 72.0311 93.208C74.6685 93.208 76.7691 92.3033 78.3331 90.494C79.8971 88.6847 80.6791 86.0627 80.6791 82.628Z" fill="#080F0F"/>
<path d="M114.782 93.07C114.782 93.714 114.613 94.2507 114.276 94.68C113.969 95.0787 113.478 95.4467 112.804 95.784C112.006 96.2133 110.902 96.566 109.492 96.842C108.081 97.118 106.64 97.256 105.168 97.256C102.99 97.256 100.982 96.98 99.1417 96.428C97.3323 95.8453 95.7683 94.956 94.4497 93.76C93.131 92.564 92.1037 91.046 91.3677 89.206C90.6317 87.366 90.2637 85.1887 90.2637 82.674C90.2637 80.2207 90.647 78.074 91.4137 76.234C92.1803 74.394 93.2077 72.876 94.4957 71.68C95.8143 70.4533 97.3477 69.5333 99.0957 68.92C100.874 68.3067 102.76 68 104.754 68C106.072 68 107.284 68.1227 108.388 68.368C109.492 68.5827 110.442 68.874 111.24 69.242C112.037 69.61 112.65 70.0393 113.08 70.53C113.509 70.99 113.724 71.4807 113.724 72.002C113.724 72.5233 113.586 72.9833 113.31 73.382C113.034 73.75 112.696 74.0413 112.298 74.256C111.47 73.7347 110.488 73.244 109.354 72.784C108.219 72.324 106.793 72.094 105.076 72.094C103.696 72.094 102.408 72.324 101.212 72.784C100.016 73.244 98.973 73.9187 98.0837 74.808C97.225 75.6973 96.5503 76.8013 96.0597 78.12C95.569 79.4387 95.3237 80.9567 95.3237 82.674C95.3237 84.4833 95.569 86.0627 96.0597 87.412C96.581 88.7307 97.271 89.8193 98.1297 90.678C99.019 91.5367 100.062 92.1807 101.258 92.61C102.484 93.0087 103.803 93.208 105.214 93.208C106.195 93.208 107.115 93.1313 107.974 92.978C108.832 92.794 109.492 92.5793 109.952 92.334V84.974H103.604C103.45 84.79 103.312 84.5293 103.19 84.192C103.098 83.824 103.052 83.456 103.052 83.088C103.052 82.3827 103.205 81.8613 103.512 81.524C103.849 81.1867 104.294 81.018 104.846 81.018H112.574C113.218 81.018 113.739 81.2173 114.138 81.616C114.567 81.984 114.782 82.5207 114.782 83.226V93.07Z" fill="#080F0F"/>
<path d="M147.326 82.628C147.326 85.02 146.973 87.136 146.268 88.976C145.593 90.7853 144.643 92.3033 143.416 93.53C142.189 94.7567 140.748 95.692 139.092 96.336C137.436 96.9493 135.627 97.256 133.664 97.256C131.701 97.256 129.877 96.9493 128.19 96.336C126.534 95.692 125.093 94.7567 123.866 93.53C122.67 92.3033 121.719 90.7853 121.014 88.976C120.339 87.136 120.002 85.02 120.002 82.628C120.002 80.236 120.355 78.1353 121.06 76.326C121.765 74.5167 122.731 72.9987 123.958 71.772C125.185 70.5147 126.626 69.5793 128.282 68.966C129.969 68.322 131.763 68 133.664 68C135.596 68 137.39 68.322 139.046 68.966C140.702 69.5793 142.143 70.5147 143.37 71.772C144.597 72.9987 145.563 74.5167 146.268 76.326C146.973 78.1353 147.326 80.236 147.326 82.628ZM142.312 82.628C142.312 79.1933 141.53 76.5867 139.966 74.808C138.402 72.9987 136.301 72.094 133.664 72.094C131.088 72.094 129.003 72.9987 127.408 74.808C125.844 76.6173 125.062 79.224 125.062 82.628C125.062 86.0627 125.844 88.6847 127.408 90.494C128.972 92.3033 131.057 93.208 133.664 93.208C136.301 93.208 138.402 92.3033 139.966 90.494C141.53 88.6847 142.312 86.0627 142.312 82.628Z" fill="#080F0F"/>
<mask id="path-4-outside-2" maskUnits="userSpaceOnUse" x="33" y="105.684" width="113" height="10" fill="black">
<rect fill="white" x="33" y="105.684" width="113" height="10"/>
<path d="M39.8545 113.683C39.6253 114.009 39.2655 114.263 38.7749 114.445C38.2879 114.628 37.7419 114.719 37.1367 114.719C36.5244 114.719 35.9801 114.573 35.5039 114.279C35.0277 113.985 34.6589 113.57 34.3975 113.033C34.1361 112.496 34.0036 111.88 34 111.185V110.197C34 109.112 34.2739 108.256 34.8218 107.63C35.3696 106.999 36.1055 106.684 37.0293 106.684C37.835 106.684 38.4831 106.89 38.9736 107.302C39.4642 107.71 39.756 108.274 39.8491 108.994H39.1885C39.0918 108.421 38.8573 107.988 38.4849 107.694C38.116 107.397 37.6326 107.248 37.0347 107.248C36.3042 107.248 35.7259 107.508 35.2998 108.027C34.8737 108.546 34.6606 109.279 34.6606 110.224V111.148C34.6606 111.742 34.7609 112.268 34.9614 112.727C35.1655 113.181 35.4556 113.534 35.8315 113.785C36.2111 114.036 36.6462 114.161 37.1367 114.161C37.7061 114.161 38.1948 114.071 38.603 113.892C38.868 113.774 39.0649 113.636 39.1938 113.479V111.459H37.0938V110.901H39.8545V113.683Z"/>
<path d="M49.1583 111.126C49.1583 111.846 49.033 112.478 48.7823 113.022C48.5353 113.566 48.1808 113.985 47.7188 114.279C47.2569 114.573 46.7234 114.719 46.1183 114.719C45.2052 114.719 44.4675 114.394 43.9054 113.742C43.3432 113.087 43.0621 112.204 43.0621 111.094V110.288C43.0621 109.576 43.1874 108.945 43.4381 108.398C43.6923 107.846 44.0504 107.424 44.5123 107.13C44.9742 106.833 45.506 106.684 46.1075 106.684C46.7091 106.684 47.239 106.829 47.6974 107.119C48.1593 107.409 48.5156 107.819 48.7662 108.349C49.0169 108.879 49.1476 109.493 49.1583 110.192V111.126ZM48.4977 110.278C48.4977 109.336 48.2846 108.598 47.8585 108.065C47.4324 107.531 46.8487 107.264 46.1075 107.264C45.3806 107.264 44.8006 107.533 44.3673 108.07C43.9376 108.604 43.7228 109.35 43.7228 110.31V111.126C43.7228 112.054 43.9376 112.789 44.3673 113.334C44.797 113.874 45.3806 114.145 46.1183 114.145C46.8666 114.145 47.4503 113.878 47.8692 113.344C48.2882 112.807 48.4977 112.061 48.4977 111.105V110.278Z"/>
<path d="M62.3357 112.174C62.2462 112.997 61.9508 113.627 61.4495 114.064C60.9518 114.501 60.2876 114.719 59.4568 114.719C58.8768 114.719 58.3629 114.574 57.9153 114.284C57.4713 113.994 57.1276 113.584 56.8841 113.054C56.6406 112.521 56.5171 111.912 56.5135 111.228V110.213C56.5135 109.518 56.6352 108.903 56.8787 108.365C57.1222 107.828 57.4713 107.415 57.9261 107.125C58.3844 106.831 58.9108 106.684 59.5052 106.684C60.3431 106.684 61.0037 106.912 61.4871 107.366C61.9741 107.818 62.257 108.442 62.3357 109.241H61.6697C61.505 107.912 60.7835 107.248 59.5052 107.248C58.7962 107.248 58.2304 107.513 57.8079 108.043C57.389 108.573 57.1795 109.305 57.1795 110.24V111.196C57.1795 112.098 57.3836 112.818 57.7918 113.355C58.2036 113.892 58.7586 114.161 59.4568 114.161C60.1479 114.161 60.6689 113.996 61.0198 113.667C61.3707 113.334 61.5874 112.836 61.6697 112.174H62.3357Z"/>
<path d="M71.371 111.126C71.371 111.846 71.2457 112.478 70.995 113.022C70.7479 113.566 70.3935 113.985 69.9315 114.279C69.4696 114.573 68.9361 114.719 68.331 114.719C67.4179 114.719 66.6802 114.394 66.1181 113.742C65.5559 113.087 65.2748 112.204 65.2748 111.094V110.288C65.2748 109.576 65.4001 108.945 65.6508 108.398C65.905 107.846 66.2631 107.424 66.725 107.13C67.1869 106.833 67.7187 106.684 68.3202 106.684C68.9218 106.684 69.4517 106.829 69.9101 107.119C70.372 107.409 70.7283 107.819 70.9789 108.349C71.2296 108.879 71.3603 109.493 71.371 110.192V111.126ZM70.7104 110.278C70.7104 109.336 70.4973 108.598 70.0712 108.065C69.6451 107.531 69.0614 107.264 68.3202 107.264C67.5933 107.264 67.0132 107.533 66.58 108.07C66.1503 108.604 65.9354 109.35 65.9354 110.31V111.126C65.9354 112.054 66.1503 112.789 66.58 113.334C67.0097 113.874 67.5933 114.145 68.331 114.145C69.0793 114.145 69.663 113.878 70.0819 113.344C70.5009 112.807 70.7104 112.061 70.7104 111.105V110.278Z"/>
<path d="M75.3521 114.053H79.2139V114.612H74.686V106.792H75.3521V114.053Z"/>
<path d="M82.8028 114.053H86.6646V114.612H82.1368V106.792H82.8028V114.053Z"/>
<path d="M93.9167 112.421H90.3664L89.5607 114.612H88.8679L91.8273 106.792H92.4558L95.4152 114.612H94.7277L93.9167 112.421ZM90.5705 111.857H93.7072L92.1389 107.597L90.5705 111.857Z"/>
<path d="M98.22 114.612V106.792H100.53C101.367 106.792 102.003 106.965 102.436 107.313C102.87 107.656 103.086 108.165 103.086 108.838C103.086 109.243 102.975 109.595 102.753 109.896C102.535 110.193 102.234 110.406 101.851 110.535C102.306 110.636 102.671 110.859 102.947 111.207C103.226 111.554 103.366 111.955 103.366 112.41C103.366 113.101 103.142 113.642 102.694 114.032C102.25 114.419 101.631 114.612 100.836 114.612H98.22ZM98.8807 110.852V114.053H100.863C101.428 114.053 101.876 113.91 102.205 113.624C102.538 113.334 102.705 112.933 102.705 112.421C102.705 111.937 102.546 111.556 102.227 111.277C101.912 110.994 101.475 110.852 100.916 110.852H98.8807ZM98.8807 110.299H100.685C101.237 110.288 101.663 110.159 101.964 109.912C102.268 109.662 102.42 109.298 102.42 108.822C102.42 108.321 102.263 107.952 101.948 107.716C101.636 107.476 101.163 107.356 100.53 107.356H98.8807V110.299Z"/>
<path d="M112.395 111.126C112.395 111.846 112.27 112.478 112.019 113.022C111.772 113.566 111.418 113.985 110.956 114.279C110.494 114.573 109.961 114.719 109.355 114.719C108.442 114.719 107.705 114.394 107.142 113.742C106.58 113.087 106.299 112.204 106.299 111.094V110.288C106.299 109.576 106.425 108.945 106.675 108.398C106.929 107.846 107.287 107.424 107.749 107.13C108.211 106.833 108.743 106.684 109.345 106.684C109.946 106.684 110.476 106.829 110.934 107.119C111.396 107.409 111.753 107.819 112.003 108.349C112.254 108.879 112.385 109.493 112.395 110.192V111.126ZM111.735 110.278C111.735 109.336 111.522 108.598 111.096 108.065C110.669 107.531 110.086 107.264 109.345 107.264C108.618 107.264 108.038 107.533 107.604 108.07C107.175 108.604 106.96 109.35 106.96 110.31V111.126C106.96 112.054 107.175 112.789 107.604 113.334C108.034 113.874 108.618 114.145 109.355 114.145C110.104 114.145 110.687 113.878 111.106 113.344C111.525 112.807 111.735 112.061 111.735 111.105V110.278Z"/>
<path d="M118.632 111.357H116.36V114.612H115.694V106.792H118.235C119.069 106.792 119.721 106.994 120.19 107.399C120.659 107.803 120.894 108.369 120.894 109.096C120.894 109.597 120.747 110.039 120.453 110.423C120.16 110.806 119.766 111.071 119.271 111.217L121.227 114.542V114.612H120.523L118.632 111.357ZM116.36 110.793H118.385C118.94 110.793 119.386 110.636 119.723 110.32C120.059 110.005 120.228 109.597 120.228 109.096C120.228 108.544 120.052 108.117 119.701 107.812C119.35 107.508 118.858 107.356 118.224 107.356H116.36V110.793Z"/>
<path d="M128.565 112.421H125.014L124.209 114.612H123.516L126.475 106.792H127.104L130.063 114.612H129.376L128.565 112.421ZM125.218 111.857H128.355L126.787 107.597L125.218 111.857Z"/>
<path d="M137.476 107.356H134.796V114.612H134.135V107.356H131.461V106.792H137.476V107.356Z"/>
<path d="M144.712 110.863H141.054V114.053H145.26V114.612H140.394V106.792H145.233V107.356H141.054V110.304H144.712V110.863Z"/>
</mask>
<path d="M39.8545 113.683C39.6253 114.009 39.2655 114.263 38.7749 114.445C38.2879 114.628 37.7419 114.719 37.1367 114.719C36.5244 114.719 35.9801 114.573 35.5039 114.279C35.0277 113.985 34.6589 113.57 34.3975 113.033C34.1361 112.496 34.0036 111.88 34 111.185V110.197C34 109.112 34.2739 108.256 34.8218 107.63C35.3696 106.999 36.1055 106.684 37.0293 106.684C37.835 106.684 38.4831 106.89 38.9736 107.302C39.4642 107.71 39.756 108.274 39.8491 108.994H39.1885C39.0918 108.421 38.8573 107.988 38.4849 107.694C38.116 107.397 37.6326 107.248 37.0347 107.248C36.3042 107.248 35.7259 107.508 35.2998 108.027C34.8737 108.546 34.6606 109.279 34.6606 110.224V111.148C34.6606 111.742 34.7609 112.268 34.9614 112.727C35.1655 113.181 35.4556 113.534 35.8315 113.785C36.2111 114.036 36.6462 114.161 37.1367 114.161C37.7061 114.161 38.1948 114.071 38.603 113.892C38.868 113.774 39.0649 113.636 39.1938 113.479V111.459H37.0938V110.901H39.8545V113.683Z" fill="#080F0F"/>
<path d="M49.1583 111.126C49.1583 111.846 49.033 112.478 48.7823 113.022C48.5353 113.566 48.1808 113.985 47.7188 114.279C47.2569 114.573 46.7234 114.719 46.1183 114.719C45.2052 114.719 44.4675 114.394 43.9054 113.742C43.3432 113.087 43.0621 112.204 43.0621 111.094V110.288C43.0621 109.576 43.1874 108.945 43.4381 108.398C43.6923 107.846 44.0504 107.424 44.5123 107.13C44.9742 106.833 45.506 106.684 46.1075 106.684C46.7091 106.684 47.239 106.829 47.6974 107.119C48.1593 107.409 48.5156 107.819 48.7662 108.349C49.0169 108.879 49.1476 109.493 49.1583 110.192V111.126ZM48.4977 110.278C48.4977 109.336 48.2846 108.598 47.8585 108.065C47.4324 107.531 46.8487 107.264 46.1075 107.264C45.3806 107.264 44.8006 107.533 44.3673 108.07C43.9376 108.604 43.7228 109.35 43.7228 110.31V111.126C43.7228 112.054 43.9376 112.789 44.3673 113.334C44.797 113.874 45.3806 114.145 46.1183 114.145C46.8666 114.145 47.4503 113.878 47.8692 113.344C48.2882 112.807 48.4977 112.061 48.4977 111.105V110.278Z" fill="#080F0F"/>
<path d="M62.3357 112.174C62.2462 112.997 61.9508 113.627 61.4495 114.064C60.9518 114.501 60.2876 114.719 59.4568 114.719C58.8768 114.719 58.3629 114.574 57.9153 114.284C57.4713 113.994 57.1276 113.584 56.8841 113.054C56.6406 112.521 56.5171 111.912 56.5135 111.228V110.213C56.5135 109.518 56.6352 108.903 56.8787 108.365C57.1222 107.828 57.4713 107.415 57.9261 107.125C58.3844 106.831 58.9108 106.684 59.5052 106.684C60.3431 106.684 61.0037 106.912 61.4871 107.366C61.9741 107.818 62.257 108.442 62.3357 109.241H61.6697C61.505 107.912 60.7835 107.248 59.5052 107.248C58.7962 107.248 58.2304 107.513 57.8079 108.043C57.389 108.573 57.1795 109.305 57.1795 110.24V111.196C57.1795 112.098 57.3836 112.818 57.7918 113.355C58.2036 113.892 58.7586 114.161 59.4568 114.161C60.1479 114.161 60.6689 113.996 61.0198 113.667C61.3707 113.334 61.5874 112.836 61.6697 112.174H62.3357Z" fill="#080F0F"/>
<path d="M71.371 111.126C71.371 111.846 71.2457 112.478 70.995 113.022C70.7479 113.566 70.3935 113.985 69.9315 114.279C69.4696 114.573 68.9361 114.719 68.331 114.719C67.4179 114.719 66.6802 114.394 66.1181 113.742C65.5559 113.087 65.2748 112.204 65.2748 111.094V110.288C65.2748 109.576 65.4001 108.945 65.6508 108.398C65.905 107.846 66.2631 107.424 66.725 107.13C67.1869 106.833 67.7187 106.684 68.3202 106.684C68.9218 106.684 69.4517 106.829 69.9101 107.119C70.372 107.409 70.7283 107.819 70.9789 108.349C71.2296 108.879 71.3603 109.493 71.371 110.192V111.126ZM70.7104 110.278C70.7104 109.336 70.4973 108.598 70.0712 108.065C69.6451 107.531 69.0614 107.264 68.3202 107.264C67.5933 107.264 67.0132 107.533 66.58 108.07C66.1503 108.604 65.9354 109.35 65.9354 110.31V111.126C65.9354 112.054 66.1503 112.789 66.58 113.334C67.0097 113.874 67.5933 114.145 68.331 114.145C69.0793 114.145 69.663 113.878 70.0819 113.344C70.5009 112.807 70.7104 112.061 70.7104 111.105V110.278Z" fill="#080F0F"/>
<path d="M75.3521 114.053H79.2139V114.612H74.686V106.792H75.3521V114.053Z" fill="#080F0F"/>
<path d="M82.8028 114.053H86.6646V114.612H82.1368V106.792H82.8028V114.053Z" fill="#080F0F"/>
<path d="M93.9167 112.421H90.3664L89.5607 114.612H88.8679L91.8273 106.792H92.4558L95.4152 114.612H94.7277L93.9167 112.421ZM90.5705 111.857H93.7072L92.1389 107.597L90.5705 111.857Z" fill="#080F0F"/>
<path d="M98.22 114.612V106.792H100.53C101.367 106.792 102.003 106.965 102.436 107.313C102.87 107.656 103.086 108.165 103.086 108.838C103.086 109.243 102.975 109.595 102.753 109.896C102.535 110.193 102.234 110.406 101.851 110.535C102.306 110.636 102.671 110.859 102.947 111.207C103.226 111.554 103.366 111.955 103.366 112.41C103.366 113.101 103.142 113.642 102.694 114.032C102.25 114.419 101.631 114.612 100.836 114.612H98.22ZM98.8807 110.852V114.053H100.863C101.428 114.053 101.876 113.91 102.205 113.624C102.538 113.334 102.705 112.933 102.705 112.421C102.705 111.937 102.546 111.556 102.227 111.277C101.912 110.994 101.475 110.852 100.916 110.852H98.8807ZM98.8807 110.299H100.685C101.237 110.288 101.663 110.159 101.964 109.912C102.268 109.662 102.42 109.298 102.42 108.822C102.42 108.321 102.263 107.952 101.948 107.716C101.636 107.476 101.163 107.356 100.53 107.356H98.8807V110.299Z" fill="#080F0F"/>
<path d="M112.395 111.126C112.395 111.846 112.27 112.478 112.019 113.022C111.772 113.566 111.418 113.985 110.956 114.279C110.494 114.573 109.961 114.719 109.355 114.719C108.442 114.719 107.705 114.394 107.142 113.742C106.58 113.087 106.299 112.204 106.299 111.094V110.288C106.299 109.576 106.425 108.945 106.675 108.398C106.929 107.846 107.287 107.424 107.749 107.13C108.211 106.833 108.743 106.684 109.345 106.684C109.946 106.684 110.476 106.829 110.934 107.119C111.396 107.409 111.753 107.819 112.003 108.349C112.254 108.879 112.385 109.493 112.395 110.192V111.126ZM111.735 110.278C111.735 109.336 111.522 108.598 111.096 108.065C110.669 107.531 110.086 107.264 109.345 107.264C108.618 107.264 108.038 107.533 107.604 108.07C107.175 108.604 106.96 109.35 106.96 110.31V111.126C106.96 112.054 107.175 112.789 107.604 113.334C108.034 113.874 108.618 114.145 109.355 114.145C110.104 114.145 110.687 113.878 111.106 113.344C111.525 112.807 111.735 112.061 111.735 111.105V110.278Z" fill="#080F0F"/>
<path d="M118.632 111.357H116.36V114.612H115.694V106.792H118.235C119.069 106.792 119.721 106.994 120.19 107.399C120.659 107.803 120.894 108.369 120.894 109.096C120.894 109.597 120.747 110.039 120.453 110.423C120.16 110.806 119.766 111.071 119.271 111.217L121.227 114.542V114.612H120.523L118.632 111.357ZM116.36 110.793H118.385C118.94 110.793 119.386 110.636 119.723 110.32C120.059 110.005 120.228 109.597 120.228 109.096C120.228 108.544 120.052 108.117 119.701 107.812C119.35 107.508 118.858 107.356 118.224 107.356H116.36V110.793Z" fill="#080F0F"/>
<path d="M128.565 112.421H125.014L124.209 114.612H123.516L126.475 106.792H127.104L130.063 114.612H129.376L128.565 112.421ZM125.218 111.857H128.355L126.787 107.597L125.218 111.857Z" fill="#080F0F"/>
<path d="M137.476 107.356H134.796V114.612H134.135V107.356H131.461V106.792H137.476V107.356Z" fill="#080F0F"/>
<path d="M144.712 110.863H141.054V114.053H145.26V114.612H140.394V106.792H145.233V107.356H141.054V110.304H144.712V110.863Z" fill="#080F0F"/>
<path d="M39.8545 113.683C39.6253 114.009 39.2655 114.263 38.7749 114.445C38.2879 114.628 37.7419 114.719 37.1367 114.719C36.5244 114.719 35.9801 114.573 35.5039 114.279C35.0277 113.985 34.6589 113.57 34.3975 113.033C34.1361 112.496 34.0036 111.88 34 111.185V110.197C34 109.112 34.2739 108.256 34.8218 107.63C35.3696 106.999 36.1055 106.684 37.0293 106.684C37.835 106.684 38.4831 106.89 38.9736 107.302C39.4642 107.71 39.756 108.274 39.8491 108.994H39.1885C39.0918 108.421 38.8573 107.988 38.4849 107.694C38.116 107.397 37.6326 107.248 37.0347 107.248C36.3042 107.248 35.7259 107.508 35.2998 108.027C34.8737 108.546 34.6606 109.279 34.6606 110.224V111.148C34.6606 111.742 34.7609 112.268 34.9614 112.727C35.1655 113.181 35.4556 113.534 35.8315 113.785C36.2111 114.036 36.6462 114.161 37.1367 114.161C37.7061 114.161 38.1948 114.071 38.603 113.892C38.868 113.774 39.0649 113.636 39.1938 113.479V111.459H37.0938V110.901H39.8545V113.683Z" stroke="black" mask="url(#path-4-outside-2)"/>
<path d="M49.1583 111.126C49.1583 111.846 49.033 112.478 48.7823 113.022C48.5353 113.566 48.1808 113.985 47.7188 114.279C47.2569 114.573 46.7234 114.719 46.1183 114.719C45.2052 114.719 44.4675 114.394 43.9054 113.742C43.3432 113.087 43.0621 112.204 43.0621 111.094V110.288C43.0621 109.576 43.1874 108.945 43.4381 108.398C43.6923 107.846 44.0504 107.424 44.5123 107.13C44.9742 106.833 45.506 106.684 46.1075 106.684C46.7091 106.684 47.239 106.829 47.6974 107.119C48.1593 107.409 48.5156 107.819 48.7662 108.349C49.0169 108.879 49.1476 109.493 49.1583 110.192V111.126ZM48.4977 110.278C48.4977 109.336 48.2846 108.598 47.8585 108.065C47.4324 107.531 46.8487 107.264 46.1075 107.264C45.3806 107.264 44.8006 107.533 44.3673 108.07C43.9376 108.604 43.7228 109.35 43.7228 110.31V111.126C43.7228 112.054 43.9376 112.789 44.3673 113.334C44.797 113.874 45.3806 114.145 46.1183 114.145C46.8666 114.145 47.4503 113.878 47.8692 113.344C48.2882 112.807 48.4977 112.061 48.4977 111.105V110.278Z" stroke="black" mask="url(#path-4-outside-2)"/>
<path d="M62.3357 112.174C62.2462 112.997 61.9508 113.627 61.4495 114.064C60.9518 114.501 60.2876 114.719 59.4568 114.719C58.8768 114.719 58.3629 114.574 57.9153 114.284C57.4713 113.994 57.1276 113.584 56.8841 113.054C56.6406 112.521 56.5171 111.912 56.5135 111.228V110.213C56.5135 109.518 56.6352 108.903 56.8787 108.365C57.1222 107.828 57.4713 107.415 57.9261 107.125C58.3844 106.831 58.9108 106.684 59.5052 106.684C60.3431 106.684 61.0037 106.912 61.4871 107.366C61.9741 107.818 62.257 108.442 62.3357 109.241H61.6697C61.505 107.912 60.7835 107.248 59.5052 107.248C58.7962 107.248 58.2304 107.513 57.8079 108.043C57.389 108.573 57.1795 109.305 57.1795 110.24V111.196C57.1795 112.098 57.3836 112.818 57.7918 113.355C58.2036 113.892 58.7586 114.161 59.4568 114.161C60.1479 114.161 60.6689 113.996 61.0198 113.667C61.3707 113.334 61.5874 112.836 61.6697 112.174H62.3357Z" stroke="black" mask="url(#path-4-outside-2)"/>
<path d="M71.371 111.126C71.371 111.846 71.2457 112.478 70.995 113.022C70.7479 113.566 70.3935 113.985 69.9315 114.279C69.4696 114.573 68.9361 114.719 68.331 114.719C67.4179 114.719 66.6802 114.394 66.1181 113.742C65.5559 113.087 65.2748 112.204 65.2748 111.094V110.288C65.2748 109.576 65.4001 108.945 65.6508 108.398C65.905 107.846 66.2631 107.424 66.725 107.13C67.1869 106.833 67.7187 106.684 68.3202 106.684C68.9218 106.684 69.4517 106.829 69.9101 107.119C70.372 107.409 70.7283 107.819 70.9789 108.349C71.2296 108.879 71.3603 109.493 71.371 110.192V111.126ZM70.7104 110.278C70.7104 109.336 70.4973 108.598 70.0712 108.065C69.6451 107.531 69.0614 107.264 68.3202 107.264C67.5933 107.264 67.0132 107.533 66.58 108.07C66.1503 108.604 65.9354 109.35 65.9354 110.31V111.126C65.9354 112.054 66.1503 112.789 66.58 113.334C67.0097 113.874 67.5933 114.145 68.331 114.145C69.0793 114.145 69.663 113.878 70.0819 113.344C70.5009 112.807 70.7104 112.061 70.7104 111.105V110.278Z" stroke="black" mask="url(#path-4-outside-2)"/>
<path d="M75.3521 114.053H79.2139V114.612H74.686V106.792H75.3521V114.053Z" stroke="black" mask="url(#path-4-outside-2)"/>
<path d="M82.8028 114.053H86.6646V114.612H82.1368V106.792H82.8028V114.053Z" stroke="black" mask="url(#path-4-outside-2)"/>
<path d="M93.9167 112.421H90.3664L89.5607 114.612H88.8679L91.8273 106.792H92.4558L95.4152 114.612H94.7277L93.9167 112.421ZM90.5705 111.857H93.7072L92.1389 107.597L90.5705 111.857Z" stroke="black" mask="url(#path-4-outside-2)"/>
<path d="M98.22 114.612V106.792H100.53C101.367 106.792 102.003 106.965 102.436 107.313C102.87 107.656 103.086 108.165 103.086 108.838C103.086 109.243 102.975 109.595 102.753 109.896C102.535 110.193 102.234 110.406 101.851 110.535C102.306 110.636 102.671 110.859 102.947 111.207C103.226 111.554 103.366 111.955 103.366 112.41C103.366 113.101 103.142 113.642 102.694 114.032C102.25 114.419 101.631 114.612 100.836 114.612H98.22ZM98.8807 110.852V114.053H100.863C101.428 114.053 101.876 113.91 102.205 113.624C102.538 113.334 102.705 112.933 102.705 112.421C102.705 111.937 102.546 111.556 102.227 111.277C101.912 110.994 101.475 110.852 100.916 110.852H98.8807ZM98.8807 110.299H100.685C101.237 110.288 101.663 110.159 101.964 109.912C102.268 109.662 102.42 109.298 102.42 108.822C102.42 108.321 102.263 107.952 101.948 107.716C101.636 107.476 101.163 107.356 100.53 107.356H98.8807V110.299Z" stroke="black" mask="url(#path-4-outside-2)"/>
<path d="M112.395 111.126C112.395 111.846 112.27 112.478 112.019 113.022C111.772 113.566 111.418 113.985 110.956 114.279C110.494 114.573 109.961 114.719 109.355 114.719C108.442 114.719 107.705 114.394 107.142 113.742C106.58 113.087 106.299 112.204 106.299 111.094V110.288C106.299 109.576 106.425 108.945 106.675 108.398C106.929 107.846 107.287 107.424 107.749 107.13C108.211 106.833 108.743 106.684 109.345 106.684C109.946 106.684 110.476 106.829 110.934 107.119C111.396 107.409 111.753 107.819 112.003 108.349C112.254 108.879 112.385 109.493 112.395 110.192V111.126ZM111.735 110.278C111.735 109.336 111.522 108.598 111.096 108.065C110.669 107.531 110.086 107.264 109.345 107.264C108.618 107.264 108.038 107.533 107.604 108.07C107.175 108.604 106.96 109.35 106.96 110.31V111.126C106.96 112.054 107.175 112.789 107.604 113.334C108.034 113.874 108.618 114.145 109.355 114.145C110.104 114.145 110.687 113.878 111.106 113.344C111.525 112.807 111.735 112.061 111.735 111.105V110.278Z" stroke="black" mask="url(#path-4-outside-2)"/>
<path d="M118.632 111.357H116.36V114.612H115.694V106.792H118.235C119.069 106.792 119.721 106.994 120.19 107.399C120.659 107.803 120.894 108.369 120.894 109.096C120.894 109.597 120.747 110.039 120.453 110.423C120.16 110.806 119.766 111.071 119.271 111.217L121.227 114.542V114.612H120.523L118.632 111.357ZM116.36 110.793H118.385C118.94 110.793 119.386 110.636 119.723 110.32C120.059 110.005 120.228 109.597 120.228 109.096C120.228 108.544 120.052 108.117 119.701 107.812C119.35 107.508 118.858 107.356 118.224 107.356H116.36V110.793Z" stroke="black" mask="url(#path-4-outside-2)"/>
<path d="M128.565 112.421H125.014L124.209 114.612H123.516L126.475 106.792H127.104L130.063 114.612H129.376L128.565 112.421ZM125.218 111.857H128.355L126.787 107.597L125.218 111.857Z" stroke="black" mask="url(#path-4-outside-2)"/>
<path d="M137.476 107.356H134.796V114.612H134.135V107.356H131.461V106.792H137.476V107.356Z" stroke="black" mask="url(#path-4-outside-2)"/>
<path d="M144.712 110.863H141.054V114.053H145.26V114.612H140.394V106.792H145.233V107.356H141.054V110.304H144.712V110.863Z" stroke="black" mask="url(#path-4-outside-2)"/>
</svg>
