<svg width="488" height="488" viewBox="0 0 488 488" fill="none" xmlns="http://www.w3.org/2000/svg">
<path d="M426.746 372.412C429.596 361.989 438.878 327.009 445.173 291.561C452.698 249.261 459.276 190.974 429.196 166.525C399.116 142.086 359.627 171.229 338.945 161.821C318.264 152.422 317.327 105.418 261.861 91.3145C206.395 77.2113 175.368 126.099 150.929 152.422C126.49 178.745 99.2202 160.884 63.4986 189.09C28.1674 216.984 58.1306 343.279 84.2581 372.412H426.746Z" fill="#68D4EC"/>
<path opacity="0.7" d="M426.746 372.412C429.596 361.989 438.878 327.009 445.173 291.561C452.698 249.261 459.276 190.974 429.196 166.525C399.116 142.086 359.627 171.229 338.945 161.821C318.264 152.422 317.327 105.418 261.861 91.3145C206.395 77.2113 175.368 126.099 150.929 152.422C126.49 178.745 99.2202 160.884 63.4986 189.09C28.1674 216.984 58.1306 343.279 84.2581 372.412H426.746Z" fill="white"/>
<path d="M436.477 174.421H359.861C359.08 174.421 358.456 175.055 358.456 175.826V373.008C358.456 373.788 359.09 374.413 359.861 374.413H436.477C437.258 374.413 437.882 373.779 437.882 373.008V175.826C437.892 175.055 437.258 174.421 436.477 174.421ZM435.072 371.602H361.276V177.242H435.072V371.602Z" fill="white"/>
<path d="M366.625 217.804H429.723C430.504 217.804 431.129 217.17 431.129 216.399V183.088C431.129 182.307 430.494 181.682 429.723 181.682H366.625C365.844 181.682 365.219 182.317 365.219 183.088V216.399C365.209 217.17 365.844 217.804 366.625 217.804ZM368.03 184.493H428.308V214.984H368.03V184.493Z" fill="white"/>
<path d="M366.625 265.121H429.723C430.504 265.121 431.129 264.486 431.129 263.715V230.404C431.129 229.624 430.494 228.999 429.723 228.999H366.625C365.844 228.999 365.219 229.633 365.219 230.404V263.715C365.209 264.496 365.844 265.121 366.625 265.121ZM368.03 231.81H428.308V262.3H368.03V231.81Z" fill="white"/>
<path d="M366.625 312.447H429.723C430.504 312.447 431.129 311.813 431.129 311.041V277.731C431.129 276.95 430.494 276.325 429.723 276.325H366.625C365.844 276.325 365.219 276.96 365.219 277.731V311.041C365.209 311.813 365.844 312.447 366.625 312.447ZM368.03 279.136H428.308V309.626H368.03V279.136Z" fill="white"/>
<path d="M366.625 359.773H429.723C430.504 359.773 431.129 359.139 431.129 358.368V325.057C431.129 324.276 430.494 323.651 429.723 323.651H366.625C365.844 323.651 365.219 324.286 365.219 325.057V358.368C365.209 359.139 365.844 359.773 366.625 359.773ZM368.03 326.462H428.308V356.953H368.03V326.462Z" fill="white"/>
<path d="M340.507 104.393H134.141C133.361 104.393 132.736 105.027 132.736 105.798V203.994V208.591C132.736 209.372 133.37 209.996 134.141 209.996H340.507C341.288 209.996 341.912 209.362 341.912 208.591V203.994V105.798C341.912 105.018 341.288 104.393 340.507 104.393ZM339.092 107.214V202.588H135.547V107.214H339.092Z" fill="white"/>
<path d="M386.916 307.713L382.475 374.745C382.426 375.448 381.84 376.004 381.138 376.004C380.376 376.004 379.771 375.379 379.791 374.618L381.635 307.713H386.916Z" fill="#474448" stroke="#474448" stroke-miterlimit="10" stroke-linecap="round" stroke-linejoin="round"/>
<path d="M398.276 307.713L402.717 374.745C402.766 375.448 403.352 376.004 404.054 376.004C404.816 376.004 405.421 375.379 405.401 374.618L403.557 307.713H398.276Z" fill="#474448" stroke="#474448" stroke-miterlimit="10" stroke-linecap="round" stroke-linejoin="round"/>
<path d="M353.751 307.713L358.192 374.745C358.241 375.448 358.826 376.004 359.529 376.004C360.29 376.004 360.895 375.379 360.876 374.618L359.031 307.713H353.751Z" fill="#474448" stroke="#474448" stroke-miterlimit="10" stroke-linecap="round" stroke-linejoin="round"/>
<path d="M335.607 307.713L331.167 374.745C331.118 375.448 330.532 376.004 329.829 376.004C329.068 376.004 328.463 375.379 328.483 374.618L330.327 307.713H335.607Z" fill="#474448" stroke="#474448" stroke-miterlimit="10" stroke-linecap="round" stroke-linejoin="round"/>
<path d="M412.975 240.067C412.975 240.067 368.665 238.417 364.917 238.417C361.169 238.417 360.3 240.067 360.3 240.067L353.976 284.67C353.976 284.67 334.309 279.048 330.444 279.751C326.579 280.454 332.348 308.475 332.348 308.475H354.61C354.61 308.475 354.756 307.869 355.01 306.796H405.245L418.587 243.239C417.787 240.379 412.975 240.067 412.975 240.067Z" fill="white" stroke="#474448" stroke-miterlimit="10" stroke-linecap="round" stroke-linejoin="round"/>
<path d="M396.11 267.99C396.11 267.99 400.619 297.231 395.456 300.686C394.655 301.223 390.312 303.712 386.242 303.302C382.992 302.98 359.959 303.302 359.959 303.302C359.959 303.302 356.757 297.212 356.113 292.722C355.469 288.232 360.505 268.966 360.505 268.966L396.11 267.99Z" fill="white" stroke="#474448" stroke-miterlimit="10" stroke-linecap="round" stroke-linejoin="round"/>
<path d="M358.387 283.674C358.387 283.674 325.057 287.129 323.476 288.076C321.904 289.023 314.672 295.308 315.931 299.398C317.19 303.487 314.048 303.8 316.878 304.434C319.708 305.059 360.271 305.059 360.271 305.059" fill="#68D4EC"/>
<path d="M358.387 283.674C358.387 283.674 325.057 287.129 323.476 288.076C321.904 289.023 314.672 295.308 315.931 299.398C317.19 303.487 314.048 303.8 316.878 304.434C319.708 305.059 360.271 305.059 360.271 305.059" stroke="#474448" stroke-miterlimit="10" stroke-linecap="round" stroke-linejoin="round"/>
<path d="M328.066 308.473H407.288V302.558H328.066V308.473Z" fill="white" stroke="#474448" stroke-miterlimit="10" stroke-linecap="round" stroke-linejoin="round"/>
<path d="M388.575 284.933H340.848C340.848 284.933 338.33 287.764 338.018 293.737C337.706 299.71 338.33 300.969 342.732 302.54C347.134 304.112 386.232 303.292 386.232 303.292" fill="#68D4EC"/>
<path d="M388.575 284.933H340.848C340.848 284.933 338.33 287.764 338.018 293.737C337.706 299.71 338.33 300.969 342.732 302.54C347.134 304.112 386.232 303.292 386.232 303.292" stroke="#474448" stroke-miterlimit="10" stroke-linecap="round" stroke-linejoin="round"/>
<path d="M350.97 360.671L345.972 348.842L337.784 350.423L344.05 360.983L340.439 368.216L332.64 373.32C332.64 373.32 331.742 374.218 335.637 373.925C339.541 373.623 347.641 373.925 347.641 373.925L352.746 367.923C352.746 367.913 354.59 364.819 350.97 360.671Z" fill="white" stroke="#474448" stroke-miterlimit="10" stroke-linecap="round" stroke-linejoin="round"/>
<path d="M353.156 365.844L353.361 373.593H352.141L350.511 369.719L353.156 365.844Z" fill="#474448" stroke="#474448" stroke-miterlimit="10" stroke-linecap="round" stroke-linejoin="round"/>
<path d="M347.641 373.915L352.746 367.913C352.746 367.913 354.073 365.678 352.248 362.457C348.617 368.664 343.786 370.529 343.786 370.529L338.76 369.318L332.64 373.32C332.64 373.32 331.742 374.218 335.637 373.925C339.541 373.613 347.641 373.915 347.641 373.915Z" fill="#474448" stroke="#474448" stroke-miterlimit="10" stroke-linecap="round" stroke-linejoin="round"/>
<path d="M331.342 300.344L348.081 350.95L336.193 353.058L312.779 300.344C312.779 300.344 310.895 292.478 315.921 289.97C320.958 287.451 335.734 286.192 335.734 286.192" fill="#68D4EC"/>
<path d="M331.342 300.344L348.081 350.95L336.193 353.058L312.779 300.344C312.779 300.344 310.895 292.478 315.921 289.97C320.958 287.451 335.734 286.192 335.734 286.192" stroke="#474448" stroke-miterlimit="10" stroke-linecap="round" stroke-linejoin="round"/>
<path d="M385.032 308.465C385.032 308.465 379.264 280.444 383.129 279.741C386.994 279.038 406.66 284.66 406.66 284.66L412.985 240.057C412.985 240.057 419.66 239.003 420.363 244.976C421.066 250.949 407.304 308.465 407.304 308.465H385.032Z" fill="#474448" stroke="#474448" stroke-miterlimit="10" stroke-linecap="round" stroke-linejoin="round"/>
<path d="M317.112 225.964L314.135 221.054C313.56 220.098 312.515 219.522 311.403 219.541L308.601 219.59L303.809 218.165C303.185 217.98 302.521 218.195 302.111 218.702L301.935 218.927L306.347 220.888L301.945 222.577L297.27 220.205C296.889 220.01 296.421 220.117 296.167 220.459C295.874 220.84 295.952 221.396 296.333 221.689L302.863 226.744C303.282 227.066 303.819 227.193 304.336 227.086L311.559 225.632L313.579 227.837L317.112 225.964Z" fill="white" stroke="#474448" stroke-miterlimit="10" stroke-linecap="round" stroke-linejoin="round"/>
<path d="M367.532 215.95L340.712 243.99L315.131 223.309L311.598 225.876L339.755 257.781L364.165 244.625L367.532 215.95Z" fill="white" stroke="#474448" stroke-miterlimit="10" stroke-linecap="round" stroke-linejoin="round"/>
<path d="M407.646 223.114L421.7 266.302L409.578 266.653L397.525 246.391C397.525 246.381 404.298 225.934 407.646 223.114Z" fill="white" stroke="#474448" stroke-miterlimit="10" stroke-linecap="round" stroke-linejoin="round"/>
<path d="M392.352 215.647L407.646 223.114L394.841 258.923L396.354 268.908L360.486 268.966L364.76 252.882L361.832 242.575C361.452 241.238 361.432 239.823 361.774 238.476L367.513 215.95L382.592 213.568L392.352 215.647Z" fill="white" stroke="#474448" stroke-miterlimit="10" stroke-linecap="round" stroke-linejoin="round"/>
<path d="M391.62 213.598C391.62 213.598 394.626 215.628 394.724 217.433C394.772 218.497 394.704 220.391 394.636 221.786C394.577 222.899 394.324 223.992 393.884 225.027L388.468 231.566L382.202 226.617L377 229.272C377 229.272 376.043 221.288 378.298 215.725C380.552 210.162 390.459 212.202 391.62 213.598Z" fill="white" stroke="#2D232E" stroke-miterlimit="10" stroke-linecap="round" stroke-linejoin="round"/>
<path d="M395.924 198.128C395.924 198.128 394.694 202.549 394.119 205.487C393.543 208.425 392.381 214.291 392.498 216.467C392.606 218.644 383.353 228.013 382.192 226.617C381.03 225.222 379.81 217.111 379.81 217.111L380.962 203.974C380.962 203.964 393.006 190.642 395.924 198.128Z" fill="white" stroke="#2D232E" stroke-miterlimit="10" stroke-linecap="round" stroke-linejoin="round"/>
<path d="M376.609 191.286C376.609 191.286 374.96 194 374.96 195.161C374.96 196.322 375.545 198.655 375.448 199.328C375.35 200.012 373.701 202.237 373.505 203.018C373.31 203.789 373.603 204.374 374.189 204.667C374.774 204.96 375.35 205.35 375.35 205.35C375.35 205.35 375.838 211.363 376.609 212.914C377.38 214.466 378.063 215.149 380.396 215.335C382.719 215.53 388.253 213.1 389.024 211.167C389.795 209.225 389.892 206.902 389.99 204.091C390.088 201.28 388.145 197.298 386.691 193.424C385.237 189.549 379.127 187.509 376.609 191.286Z" fill="white" stroke="#2D232E" stroke-miterlimit="10" stroke-linecap="round" stroke-linejoin="round"/>
<path d="M401.644 211.148C405.756 211.148 409.09 207.814 409.09 203.701C409.09 199.588 405.756 196.254 401.644 196.254C397.531 196.254 394.197 199.588 394.197 203.701C394.197 207.814 397.531 211.148 401.644 211.148Z" fill="#2D232E" stroke="#2D232E" stroke-miterlimit="10" stroke-linecap="round" stroke-linejoin="round"/>
<path d="M376.57 190.876C376.57 190.876 379.567 188.3 384.964 193.433C390.361 198.567 388.302 206.014 391.893 207.556C395.485 209.098 402.161 201.398 402.932 197.542C403.703 193.687 401.39 185.733 394.197 184.191C387.013 182.649 378.19 183.693 376.57 190.876Z" fill="#2D232E" stroke="#2D232E" stroke-miterlimit="10" stroke-linecap="round" stroke-linejoin="round"/>
<path d="M376.57 190.876C376.57 190.876 376.228 186.24 381.108 186.494C385.989 186.748 386.506 194.458 389.073 197.533C391.64 200.617 392.928 200.1 392.928 200.1C392.928 200.1 388.565 201.388 385.735 199.846C382.904 198.313 381.528 189.608 376.57 190.876Z" fill="#2D232E" stroke="#2D232E" stroke-miterlimit="10" stroke-linecap="round" stroke-linejoin="round"/>
<path d="M384.573 185.596C384.573 185.596 388.165 187.529 390.38 192.233C392.596 196.937 392.596 200.812 397.847 200.529C397.847 200.529 395.358 201.085 391.483 199.143C387.609 197.211 386.779 191.677 384.29 189.461C381.801 187.246 379.313 187.246 379.313 187.246" stroke="white" stroke-width="0.5" stroke-miterlimit="10" stroke-linecap="round" stroke-linejoin="round"/>
<path d="M402.932 197.542C402.932 197.542 402.707 204.589 397.3 206.073" stroke="white" stroke-width="0.5" stroke-miterlimit="10" stroke-linecap="round" stroke-linejoin="round"/>
<path d="M387.843 204.736C387.843 204.736 392.986 198.001 394.206 203.037C395.426 208.073 391.317 209.303 389.365 208.718C387.413 208.132 387.677 207.107 387.677 207.107" fill="white"/>
<path d="M387.843 204.736C387.843 204.736 392.986 198.001 394.206 203.037C395.426 208.073 391.317 209.303 389.365 208.718C387.413 208.132 387.677 207.107 387.677 207.107" stroke="#2D232E" stroke-miterlimit="10" stroke-linecap="round" stroke-linejoin="round"/>
<path d="M376.375 262.446C376.375 262.446 366.537 263.813 364.897 263.813C363.257 263.813 359.158 269.005 359.158 269.005H377.195L376.375 262.446Z" fill="white" stroke="#474448" stroke-miterlimit="10" stroke-linecap="round" stroke-linejoin="round"/>
<path d="M418.167 255.829L421.7 263.784C422.393 265.814 420.89 267.912 418.753 267.932L376.102 268.176L376.375 262.437L409.442 257.205" fill="white"/>
<path d="M418.167 255.829L421.7 263.784C422.393 265.814 420.89 267.912 418.753 267.932L376.102 268.176L376.375 262.437L409.442 257.205" stroke="#474448" stroke-miterlimit="10" stroke-linecap="round" stroke-linejoin="round"/>
<path d="M361.081 365.844L361.286 373.593H360.066L358.436 369.719L361.081 365.844Z" fill="#474448" stroke="#474448" stroke-miterlimit="10" stroke-linecap="round" stroke-linejoin="round"/>
<path d="M358.895 360.671L357.333 349.369L349.144 349.896L351.975 360.983L348.364 368.216L340.565 373.32C340.565 373.32 339.668 374.218 343.562 373.925C347.466 373.623 355.567 373.925 355.567 373.925L360.671 367.923C360.671 367.913 362.516 364.819 358.895 360.671Z" fill="white" stroke="#474448" stroke-miterlimit="10" stroke-linecap="round" stroke-linejoin="round"/>
<path d="M355.567 373.915L360.671 367.913C360.671 367.913 361.998 365.678 360.173 362.457C356.543 368.664 351.711 370.529 351.711 370.529L346.685 369.318L340.565 373.32C340.565 373.32 339.668 374.218 343.562 373.925C347.466 373.613 355.567 373.915 355.567 373.915Z" fill="#474448" stroke="#474448" stroke-miterlimit="10" stroke-linecap="round" stroke-linejoin="round"/>
<path d="M355.147 291.629L358.641 351.477L347.554 351.741L336.74 297.368C336.74 297.368 336.944 287.022 340.253 285.831C343.562 284.641 352.346 285.919 352.346 285.919" fill="#68D4EC"/>
<path d="M355.147 291.629L358.641 351.477L347.554 351.741L336.74 297.368C336.74 297.368 336.944 287.022 340.253 285.831C343.562 284.641 352.346 285.919 352.346 285.919" stroke="#474448" stroke-miterlimit="10" stroke-linecap="round" stroke-linejoin="round"/>
<path d="M306.64 162.807L320.421 201.407C320.421 201.407 318.596 210.143 313.14 209.781C307.674 209.42 306.22 201.768 304.766 200.675C303.311 199.582 301.125 191.208 301.125 191.208L306.64 162.807Z" fill="white" stroke="#2D232E" stroke-miterlimit="10" stroke-linecap="round" stroke-linejoin="round"/>
<path d="M271.016 155.067L248.626 163.148L257.215 225.232H297.612L306.64 162.807L282.474 155.243L271.016 155.067Z" fill="white" stroke="#2D232E" stroke-miterlimit="10" stroke-linecap="round" stroke-linejoin="round"/>
<path d="M273.173 165.705L276.403 170.576L273.602 211.88L277.721 222.635L281.947 212.173L278.326 171.19L281.234 164.153L277.203 158.854L273.173 165.705Z" fill="#68D4EC" stroke="#2D232E" stroke-miterlimit="10" stroke-linecap="round" stroke-linejoin="round"/>
<path d="M277.643 163.695L271.874 168.018L268.078 156.746L270.713 151.036L282.523 150.753L285.402 153.339L284.826 167.726L277.643 163.695Z" fill="white" stroke="#2D232E" stroke-miterlimit="10" stroke-linecap="round" stroke-linejoin="round"/>
<path d="M283.743 148.108L282.835 155.36L276.384 163.704L271.552 155.252V141.657C271.552 141.647 280.014 143.765 283.743 148.108Z" fill="white" stroke="#2D232E" stroke-miterlimit="10" stroke-linecap="round" stroke-linejoin="round"/>
<path d="M268.234 133.039C268.234 126.451 273.036 121.112 278.96 121.112C284.885 121.112 288.184 126.743 288.184 133.331C288.184 135.459 287.744 139.109 287.569 141.042C287.266 144.36 286.261 145.766 284.299 148.742C277.867 158.541 272.597 144.184 269.884 139.373C268.829 137.548 268.234 135.371 268.234 133.039Z" fill="white" stroke="#2D232E" stroke-miterlimit="10" stroke-linecap="round" stroke-linejoin="round"/>
<path d="M283.635 135.108L284.543 141.91L281.352 141.823" fill="white"/>
<path d="M283.635 135.108L284.543 141.91L281.352 141.823" stroke="#2D232E" stroke-miterlimit="10" stroke-linecap="round" stroke-linejoin="round"/>
<path d="M290.76 133.927L275.417 133.995C275.417 133.995 274.724 136.025 276.179 137.479C277.135 138.436 281.127 138.114 281.752 137.86C282.386 137.606 282.767 134.815 282.767 134.815H283.909C283.909 134.815 284.035 137.733 285.685 137.987C287.334 138.241 289.452 138.153 289.872 137.86C291.648 136.591 290.76 133.927 290.76 133.927Z" fill="white" stroke="#2D232E" stroke-miterlimit="10" stroke-linecap="round" stroke-linejoin="round"/>
<path d="M270.128 140.485C270.128 140.485 273.583 147.561 274.393 150.011C275.213 152.461 279.302 154.374 283.382 153.007C287.471 151.641 286.378 145.561 286.378 145.561C286.378 145.561 282.025 141.832 281.205 142.652C280.385 143.472 276.023 147.015 275.759 146.195C275.486 145.375 273.583 140.476 273.583 140.476L272.694 137.011L274.52 135.83C275.066 135.371 275.173 134.581 274.764 133.995L273.905 132.765C273.69 132.453 273.612 132.082 273.68 131.711C273.905 130.638 274.52 128.442 275.945 127.827C277.848 127.007 280.268 128.198 282.445 128.744C284.621 129.291 287.012 127.319 287.012 127.319L287.949 130.569C287.949 130.569 291.297 127.68 292.39 123.044C293.483 118.408 282.308 116.505 278.765 116.505C275.222 116.505 269.503 118.408 267.863 123.591C266.224 128.754 269.161 139.578 270.128 140.485Z" fill="#2D232E" stroke="#2D232E" stroke-miterlimit="10" stroke-linecap="round" stroke-linejoin="round"/>
<path d="M278.97 123.025C278.97 123.025 281 126.07 278.336 126.704C275.671 127.339 270.479 125.055 268.195 125.943" stroke="white" stroke-width="0.5" stroke-miterlimit="10" stroke-linecap="round" stroke-linejoin="round"/>
<path d="M274.402 129.74C274.402 129.74 270.215 129.232 268.576 131.008" stroke="white" stroke-width="0.5" stroke-miterlimit="10" stroke-linecap="round" stroke-linejoin="round"/>
<path d="M284.455 145.131C284.455 145.131 281.381 146.722 279.858 144.819" stroke="white" stroke-width="0.5" stroke-miterlimit="10" stroke-linecap="round" stroke-linejoin="round"/>
<path d="M270.645 138.328C270.645 138.328 267.629 135.01 267.629 138.631C267.629 142.252 268.537 142.252 270.352 143.462C272.167 144.672 272.772 143.16 272.772 143.16" fill="white"/>
<path d="M270.645 138.328C270.645 138.328 267.629 135.01 267.629 138.631C267.629 142.252 268.537 142.252 270.352 143.462C272.167 144.672 272.772 143.16 272.772 143.16" stroke="#2D232E" stroke-miterlimit="10" stroke-linecap="round" stroke-linejoin="round"/>
<path d="M310.915 363.306L311.051 363.297L310.788 361.979L297.612 225.241H257.215L243.932 363.306H244.078L252.647 364.048C252.647 364.048 262.154 332.123 262.154 329.751C262.154 327.38 264.867 305.303 264.867 305.303L278.345 257.918L290.262 305.303C290.262 305.303 292.976 327.38 292.976 329.751C292.976 332.123 302.482 364.048 302.482 364.048L310.553 363.355H310.915V363.306Z" fill="#2D232E" stroke="#2D232E" stroke-miterlimit="10" stroke-linecap="round" stroke-linejoin="round"/>
<path d="M294.596 233.284L285.607 246.118" stroke="white" stroke-width="0.5" stroke-miterlimit="10" stroke-linecap="round" stroke-linejoin="round"/>
<path d="M289.784 236.172L284.328 245.161" stroke="white" stroke-width="0.5" stroke-miterlimit="10" stroke-linecap="round" stroke-linejoin="round"/>
<path d="M264.115 235.538L272.128 244.195" stroke="white" stroke-width="0.5" stroke-miterlimit="10" stroke-linecap="round" stroke-linejoin="round"/>
<path d="M263.471 238.739L275.017 250.295" stroke="white" stroke-width="0.5" stroke-miterlimit="10" stroke-linecap="round" stroke-linejoin="round"/>
<path d="M259.616 226.549H295.24" stroke="white" stroke-width="0.5" stroke-miterlimit="10" stroke-linecap="round" stroke-linejoin="round"/>
<path d="M244.078 363.297C244.078 363.297 238.935 367.347 235.968 368.46C233 369.572 227.447 372.529 227.447 372.529C227.447 372.529 227.447 374.384 232.259 374.384C237.07 374.384 251.144 374.384 251.144 374.384L250.803 363.297H244.078Z" fill="#2D232E" stroke="#2D232E" stroke-miterlimit="10" stroke-linecap="round" stroke-linejoin="round"/>
<path d="M251.086 372.363C241.98 372.871 232.756 372.324 228.462 372.002C227.847 372.324 227.457 372.529 227.457 372.529C227.457 372.529 227.457 374.384 232.268 374.384C237.08 374.384 251.154 374.384 251.154 374.384L251.086 372.363Z" fill="white" stroke="#2D232E" stroke-miterlimit="10" stroke-linecap="round" stroke-linejoin="round"/>
<path d="M310.133 363.297C310.133 363.297 315.276 367.347 318.243 368.46C321.201 369.572 326.764 372.53 326.764 372.53C326.764 372.53 326.764 374.384 321.952 374.384C317.141 374.384 303.067 374.384 303.067 374.384L303.408 363.297H310.133Z" fill="#2D232E" stroke="#2D232E" stroke-miterlimit="10" stroke-linecap="round" stroke-linejoin="round"/>
<path d="M303.126 372.363C312.232 372.871 321.455 372.324 325.75 372.002C326.365 372.324 326.755 372.529 326.755 372.529C326.755 372.529 326.755 374.384 321.943 374.384C317.132 374.384 303.058 374.384 303.058 374.384L303.126 372.363Z" fill="white" stroke="#2D232E" stroke-miterlimit="10" stroke-linecap="round" stroke-linejoin="round"/>
<path d="M248.626 163.148L233.752 202.862H248.021L253.35 192.028L248.626 163.148Z" fill="white" stroke="#2D232E" stroke-miterlimit="10" stroke-linecap="round" stroke-linejoin="round"/>
<path d="M313.696 196.713C307.752 194.263 288.652 193.033 287.647 193.033C286.554 193.033 255.605 190.486 253.057 190.125C250.51 189.764 247.592 195.59 247.592 195.59L261.06 195.229L277.448 198.509C277.448 198.509 310.583 210.523 313.13 209.791C313.433 209.703 313.735 209.508 314.028 209.225" fill="white"/>
<path d="M313.696 196.713C307.752 194.263 288.652 193.033 287.647 193.033C286.554 193.033 255.605 190.486 253.057 190.125C250.51 189.764 247.592 195.59 247.592 195.59L261.06 195.229L277.448 198.509C277.448 198.509 310.583 210.523 313.13 209.791C313.433 209.703 313.735 209.508 314.028 209.225" stroke="#2D232E" stroke-miterlimit="10" stroke-linecap="round" stroke-linejoin="round"/>
<path d="M244.312 194.849L295.65 189.754L296.011 194.126L251.593 207.595C251.593 207.595 243.58 209.42 237.392 208.327C231.205 207.234 234.113 201.046 235.567 197.406" fill="white"/>
<path d="M244.312 194.849L295.65 189.754L296.011 194.126L251.593 207.595C251.593 207.595 243.58 209.42 237.392 208.327C231.205 207.234 234.113 201.046 235.567 197.406" stroke="#2D232E" stroke-miterlimit="10" stroke-linecap="round" stroke-linejoin="round"/>
<path d="M295.65 189.754L305.488 189.393L308.397 195.21L296.021 194.117L295.65 189.754Z" fill="white" stroke="#2D232E" stroke-miterlimit="10" stroke-linecap="round" stroke-linejoin="round"/>
<path d="M361.12 275.388L369.514 375.204C369.601 375.838 370.216 376.258 370.821 376.111C371.339 375.994 371.69 375.496 371.631 374.96L365.922 275.378H361.12V275.388Z" fill="#474448" stroke="#474448" stroke-miterlimit="10" stroke-linecap="round" stroke-linejoin="round"/>
<path d="M417.465 275.388L425.878 375.545C425.965 376.18 426.58 376.599 427.185 376.453C427.703 376.336 428.054 375.838 427.996 375.301L422.266 275.388H417.465Z" fill="#474448" stroke="#474448" stroke-miterlimit="10" stroke-linecap="round" stroke-linejoin="round"/>
<path d="M184.942 275.388L180.511 374.335C180.462 374.872 180.814 375.37 181.341 375.496C181.956 375.643 182.561 375.233 182.639 374.599L189.734 275.388H184.942Z" fill="#474448" stroke="#474448" stroke-miterlimit="10" stroke-linecap="round" stroke-linejoin="round"/>
<path d="M133.009 275.387L128.598 374.002C128.549 374.539 128.9 375.037 129.427 375.164C130.042 375.31 130.647 374.9 130.725 374.266L137.792 275.387H133.009Z" fill="#474448" stroke="#474448" stroke-miterlimit="10" stroke-linecap="round" stroke-linejoin="round"/>
<path d="M428.435 269.854H129.886V278.423H428.435V269.854Z" fill="#68D4EC" stroke="#474448" stroke-miterlimit="10" stroke-linecap="round" stroke-linejoin="round"/>
<path d="M428.435 269.854H129.886V272.792H428.435V269.854Z" fill="#474448" stroke="#474448" stroke-miterlimit="10" stroke-linecap="round" stroke-linejoin="round"/>
<path d="M428.425 269.854H353.722V278.423H428.425V269.854Z" fill="#474448" stroke="#474448" stroke-miterlimit="10" stroke-linecap="round" stroke-linejoin="round"/>
<path d="M431.089 267.004H127.222V270.274H431.089V267.004Z" fill="#68D4EC" stroke="#474448" stroke-miterlimit="10" stroke-linecap="round" stroke-linejoin="round"/>
<path d="M431.08 267.004H356.835V270.274H431.08V267.004Z" fill="#474448" stroke="#474448" stroke-miterlimit="10" stroke-linecap="round" stroke-linejoin="round"/>
<path d="M194.907 266.711H235.685C235.997 266.711 236.28 266.526 236.407 266.233L247.699 240.486C247.933 239.959 247.543 239.374 246.977 239.374H206.2C205.887 239.374 205.604 239.559 205.477 239.852L194.185 265.599C193.951 266.126 194.341 266.711 194.907 266.711Z" fill="white" stroke="#2D232E" stroke-miterlimit="10" stroke-linecap="round" stroke-linejoin="round"/>
<path d="M198.733 264.701H233.528C233.791 264.701 234.035 264.545 234.142 264.301L243.776 242.331C243.971 241.882 243.649 241.384 243.161 241.384H208.366C208.103 241.384 207.859 241.54 207.751 241.784L198.118 263.754C197.913 264.203 198.245 264.701 198.733 264.701Z" fill="#68D4EC" stroke="#2D232E" stroke-miterlimit="10" stroke-linecap="round" stroke-linejoin="round"/>
<path d="M236.251 265.004H174.987V267.004H236.251V265.004Z" fill="white" stroke="#2D232E" stroke-miterlimit="10" stroke-linecap="round" stroke-linejoin="round"/>
<path d="M236.26 265.004H206.561V267.004H236.26V265.004Z" fill="white" stroke="#2D232E" stroke-miterlimit="10" stroke-linecap="round" stroke-linejoin="round"/>
<path d="M255.937 251.076H245.132V267.043H255.937V251.076Z" fill="white" stroke="#2D232E" stroke-miterlimit="10" stroke-linecap="round" stroke-linejoin="round"/>
<path d="M255.458 264.867H254.326C253.838 264.867 253.438 264.467 253.438 263.979C253.438 263.491 253.838 263.091 254.326 263.091H255.458C256.385 263.091 257.147 262.329 257.147 261.402V257.527C257.147 256.6 256.385 255.839 255.458 255.839H254.004C253.516 255.839 253.116 255.439 253.116 254.951C253.116 254.463 253.516 254.063 254.004 254.063H255.458C257.371 254.063 258.933 255.624 258.933 257.537V261.412C258.923 263.315 257.371 264.867 255.458 264.867Z" fill="white" stroke="#2D232E" stroke-miterlimit="10" stroke-linecap="round" stroke-linejoin="round"/>
<path d="M340.351 266.711H299.573C299.261 266.711 298.978 266.526 298.851 266.233L287.559 240.486C287.325 239.959 287.715 239.374 288.281 239.374H329.058C329.371 239.374 329.654 239.559 329.781 239.852L341.073 265.599C341.307 266.126 340.927 266.711 340.351 266.711Z" fill="white" stroke="#2D232E" stroke-miterlimit="10" stroke-linecap="round" stroke-linejoin="round"/>
<path d="M299.006 267.003H360.269V265.002H299.006V267.003Z" fill="white" stroke="#2D232E" stroke-miterlimit="10" stroke-linecap="round" stroke-linejoin="round"/>
<path d="M299.006 267.003H341.247V265.002H299.006V267.003Z" fill="white" stroke="#2D232E" stroke-miterlimit="10" stroke-linecap="round" stroke-linejoin="round"/>
<path d="M314.994 250.071C315.648 251.261 315.248 252.745 314.087 253.389C312.925 254.023 311.451 253.575 310.797 252.384C310.144 251.193 310.544 249.71 311.705 249.065C312.867 248.431 314.34 248.88 314.994 250.071Z" fill="white" stroke="#2D232E" stroke-miterlimit="10" stroke-linecap="round" stroke-linejoin="round"/>
<path d="M124.313 174.284L127.319 204.023L141.022 243.58L136.347 246.255L120.302 210.045L112.279 178.969C112.279 178.969 111.615 169.609 114.953 168.272C118.291 166.935 122.976 168.272 124.313 174.284Z" fill="white" stroke="#2D232E" stroke-miterlimit="10" stroke-linecap="round" stroke-linejoin="round"/>
<path d="M141.022 243.58C141.022 243.58 144.028 249.934 144.36 251.603C144.692 253.272 145.043 256.678 143.736 258.201C142.145 260.036 140.69 258.62 140.69 258.62C140.69 258.62 136.679 257.615 136.679 254.277C136.679 250.939 136.347 246.255 136.347 246.255L141.022 243.58Z" fill="white" stroke="#2D232E" stroke-miterlimit="10" stroke-linecap="round" stroke-linejoin="round"/>
<path d="M137.743 253.545L143.374 255.009" stroke="#2D232E" stroke-miterlimit="10" stroke-linecap="round" stroke-linejoin="round"/>
<path d="M139.09 249.749L140.69 252.267C140.69 252.267 136.962 258.64 138.963 256.971C140.964 255.302 144.702 253.272 144.37 251.603C144.038 249.934 142.154 246.567 142.154 246.567" fill="white"/>
<path d="M139.09 249.749L140.69 252.267C140.69 252.267 136.962 258.64 138.963 256.971C140.964 255.302 144.702 253.272 144.37 251.603C144.038 249.934 142.154 246.567 142.154 246.567" stroke="#2D232E" stroke-miterlimit="10" stroke-linecap="round" stroke-linejoin="round"/>
<path d="M108.287 138.602C108.287 138.602 104.852 134.903 96.9265 137.284C89.0014 139.666 87.147 152.344 87.4105 158.688C87.6741 165.032 93.7545 172.166 91.9001 175.338C90.0457 178.51 83.1747 185.908 83.7115 193.834C84.2385 201.759 90.8461 208.103 100.362 205.194C109.878 202.286 108.287 190.662 106.443 186.426C104.588 182.2 108.56 180.345 109.878 171.093C111.196 161.84 102.744 154.179 102.744 147.571C102.744 140.964 109.615 142.018 109.615 142.018L108.287 138.602Z" fill="#2D232E" stroke="#2D232E" stroke-miterlimit="10" stroke-linecap="round" stroke-linejoin="round"/>
<path d="M96.4288 163.675C97.6781 166.252 99.1323 169.004 100.577 171.961C105.388 181.8 101.621 185.362 94.3011 190.798C86.9714 196.244 88.6501 202.94 90.5338 203.984" stroke="white" stroke-width="0.5" stroke-miterlimit="10" stroke-linecap="round" stroke-linejoin="round"/>
<path d="M105.818 141.198C105.818 141.198 95.9799 142.037 93.4715 148.313C91.949 152.129 93.1202 156.404 95.365 161.382" stroke="white" stroke-width="0.5" stroke-miterlimit="10" stroke-linecap="round" stroke-linejoin="round"/>
<path d="M98.6248 201.534C99.3178 201.798 100.108 201.934 100.996 201.895" stroke="white" stroke-width="0.5" stroke-miterlimit="10" stroke-linecap="round" stroke-linejoin="round"/>
<path d="M108.326 140.573C108.326 140.573 99.1128 142.252 97.0242 148.947C94.9355 155.643 107.282 165.481 107.907 172.811C108.531 180.14 99.7472 184.327 96.6045 189.978C94.4085 193.931 94.672 198.304 96.9656 200.49" stroke="white" stroke-width="0.5" stroke-miterlimit="10" stroke-linecap="round" stroke-linejoin="round"/>
<path d="M131.975 275.3C131.975 275.3 129.701 294.937 127.417 301.203C125.143 307.469 120.019 356.708 119.736 359.558C119.453 362.408 127.134 368.948 130.267 370.948C133.4 372.939 131.975 373.515 128.559 373.798C125.143 374.081 121.161 373.515 119.453 370.382C117.745 367.249 113.763 366.4 113.763 366.4L113.196 373.232H112.055L111.196 364.692C111.196 364.692 110.63 362.125 112.055 359.002C113.48 355.869 114.046 349.32 114.046 340.497C114.046 331.674 112.338 317.444 113.196 310.612C114.046 303.78 117.462 298.656 117.462 292.966C117.462 287.276 117.745 278.736 117.745 278.736L131.975 275.3Z" fill="white" stroke="#2D232E" stroke-miterlimit="10" stroke-linecap="round" stroke-linejoin="round"/>
<path d="M111.196 364.682C111.196 364.682 110.786 362.799 111.557 360.3C113.323 363.287 118.369 367.337 122.293 368.957C125.182 370.148 127.563 370.216 129.008 370.089C129.476 370.431 129.896 370.724 130.257 370.958C133.39 372.949 131.965 373.515 128.549 373.808C125.133 374.091 121.151 373.525 119.443 370.392C117.735 367.259 113.753 366.41 113.753 366.41L113.187 373.242H112.045L111.196 364.682Z" fill="#2D232E" stroke="#2D232E" stroke-miterlimit="10" stroke-linecap="round" stroke-linejoin="round"/>
<path d="M115.461 278.433C115.461 278.433 110.62 292.946 106.072 305.478C101.514 318 90.6997 346.753 89.5578 351.877C88.4158 357.001 87.8498 366.39 84.7168 371.231C81.5838 376.072 78.4509 378.346 79.0267 369.806C79.5928 361.266 84.7168 355 85.8587 348.461C87.0006 341.912 87.5667 318.283 91.5488 307.752C95.5309 297.221 99.8057 288.681 100.372 285.548C100.938 282.415 100.938 276.159 100.938 276.159L115.461 278.433Z" fill="white" stroke="#2D232E" stroke-miterlimit="10" stroke-linecap="round" stroke-linejoin="round"/>
<path d="M79.5635 366.146C79.7392 367.942 80.1589 369.689 81.0178 370.665C82.6477 372.5 85.3024 368.938 86.6688 366.761C86.1515 368.45 85.5171 369.992 84.7168 371.231C81.5838 376.072 78.4509 378.346 79.0267 369.806C79.1146 368.538 79.3098 367.318 79.5635 366.146Z" fill="#2D232E" stroke="#2D232E" stroke-miterlimit="10" stroke-linecap="round" stroke-linejoin="round"/>
<path d="M113.187 163.87C113.187 163.87 111.479 165.295 110.337 174.968C109.195 184.649 116.31 214.818 116.31 214.818C116.31 214.818 104.071 234.865 101.221 244.83C98.371 254.795 96.663 292.127 96.663 292.127C96.663 292.127 102.636 294.401 114.885 295.26C127.124 296.118 133.673 292.985 133.673 292.985C133.673 292.985 134.239 239.706 134.239 231.449C134.239 223.192 134.805 204.57 135.664 202.296C136.523 200.021 139.08 194.039 139.08 191.764C139.08 189.49 122 165.295 122 165.295L113.187 163.87Z" fill="white" stroke="#2D232E" stroke-miterlimit="10" stroke-linecap="round" stroke-linejoin="round"/>
<path d="M101.231 244.839C103.476 236.992 112.767 216.262 116.085 212.69C121.131 214.369 130.325 216.028 134.434 214.808C134.317 217.765 134.249 228.667 134.249 231.468C134.249 239.725 133.683 293.005 133.683 293.005C133.683 293.005 127.134 296.138 114.895 295.279C102.656 294.43 96.6728 292.146 96.6728 292.146C96.6728 292.146 98.3808 254.804 101.231 244.839Z" fill="#2D232E" stroke="#2D232E" stroke-miterlimit="10" stroke-linecap="round" stroke-linejoin="round"/>
<path d="M119.531 130.316C119.531 130.316 122.595 123.649 128.637 123.649C134.678 123.649 137.362 129.017 136.025 133.722C134.678 138.416 140.056 137.079 140.72 140.095C141.393 143.111 136.357 145.131 133.673 145.131C130.979 145.131 119.531 130.316 119.531 130.316Z" fill="#2D232E" stroke="#2D232E" stroke-miterlimit="10" stroke-linecap="round" stroke-linejoin="round"/>
<path d="M128.354 129.632C130.15 128.627 132.258 127.954 133.234 129.476C135.117 132.404 129.252 134.708 131.145 137.85C133.029 140.993 137.636 140.154 137.421 141.198C137.216 142.242 134.278 142.877 134.278 142.877" stroke="white" stroke-width="0.5" stroke-miterlimit="10" stroke-linecap="round" stroke-linejoin="round"/>
<path d="M125.279 131.78C125.279 131.78 125.855 131.282 126.704 130.677" stroke="white" stroke-width="0.5" stroke-miterlimit="10" stroke-linecap="round" stroke-linejoin="round"/>
<path d="M135.02 145.805C134.649 145.58 134.317 145.131 134.024 144.575C133.536 140.973 132.492 137.431 130.491 135.43C126.88 131.819 122.156 130.677 119.531 130.316C118.311 130.15 117.081 130.237 115.92 130.638C110.737 132.463 106.277 136.045 107.243 144.682C108.297 154.198 115.705 156.57 115.705 156.57L116.232 162.387L123.63 165.822L123.893 159.478C123.893 159.478 128.91 161.596 130.764 161.333C132.619 161.069 133.146 158.688 133.936 155.252C134.171 154.257 134.337 152.539 134.366 150.499C134.795 150.07 135.684 149.182 136.572 148.293C137.811 147.054 136.572 146.742 135.02 145.805Z" fill="white" stroke="#2D232E" stroke-miterlimit="10" stroke-linecap="round" stroke-linejoin="round"/>
<path d="M107.233 144.682C106.277 136.045 110.727 132.463 115.91 130.638C117.071 130.228 118.311 130.14 119.521 130.316C121.453 130.579 124.528 131.282 127.456 133.068C125.972 132.765 128.49 137.118 126.177 139.929C122.478 144.419 118.594 146 118.594 146C118.594 146 115.949 143.882 115.158 146.79C114.368 149.699 114.631 151.807 116.739 152.344C118.857 152.871 119.648 152.344 119.648 152.344C119.648 152.344 118.242 155.672 115.724 157.048L115.685 156.57C115.695 156.58 108.287 154.198 107.233 144.682Z" fill="#2D232E" stroke="#2D232E" stroke-miterlimit="10" stroke-linecap="round" stroke-linejoin="round"/>
<path d="M127.417 164.163L126.002 171.844L110.913 163.87L112.338 156.755L127.417 164.163Z" fill="white" stroke="#2D232E" stroke-miterlimit="10" stroke-linecap="round" stroke-linejoin="round"/>
<path d="M120.126 228.999C120.126 228.999 123.63 229.711 124.869 229.643C126.109 229.575 127.836 228.169 129.047 228.765C130.257 229.36 132.043 233.118 132.043 233.118C132.043 233.118 133.702 233.957 133.224 234.835C132.746 235.714 130.706 236.543 130.706 236.543C130.706 236.543 128.744 238.388 127.612 238.573C126.49 238.759 119.589 233.713 119.589 233.713L120.126 228.999Z" fill="white" stroke="#2D232E" stroke-miterlimit="10" stroke-linecap="round" stroke-linejoin="round"/>
<path d="M120.858 232.649C121.834 231.478 121.483 229.702 120.126 228.999L101.153 211.236L121.805 179.135C123.874 175.592 122.634 171.015 119.121 168.975C115.578 166.906 111.03 168.116 108.961 171.659L91.0608 207.234C89.1283 209.118 89.0698 212.202 90.9046 214.164C90.9242 214.193 90.9534 214.212 90.973 214.242C92.7688 217.004 112.523 231.507 118.252 233.401C119.209 233.703 120.224 233.41 120.858 232.649Z" fill="white" stroke="#2D232E" stroke-miterlimit="10" stroke-linecap="round" stroke-linejoin="round"/>
<path d="M195.893 183.498C195.893 183.498 198.343 191.091 198.343 192.555C198.343 194.029 198.099 195.737 198.099 195.737L200.265 199.084C200.549 199.533 200.412 200.119 199.953 200.392L196.625 202.344C196.625 202.344 196.137 210.182 195.649 211.158C195.161 212.134 186.836 211.89 186.836 211.89L184.142 217.033L170.185 211.646L173.855 201.603L173.123 186.426C173.123 186.436 181.692 178.842 195.893 183.498Z" fill="white" stroke="#2D232E" stroke-miterlimit="10" stroke-linecap="round" stroke-linejoin="round"/>
<path d="M186.338 201.934C186.338 201.934 183.908 204.218 182.083 204.365C180.257 204.521 174.323 203.145 173.874 202.54C173.416 201.934 169.316 193.414 169.463 189.305C169.619 185.196 169.765 179.116 174.177 177.134C178.588 175.153 185.586 175.768 189.237 173.484C192.887 171.2 198.665 169.375 201.71 173.328C204.755 177.281 202.471 182.756 200.041 185.04C197.611 187.324 194.566 187.929 194.868 188.993C195.171 190.056 196.996 191.12 195.932 192.643C194.868 194.165 191.062 195.532 191.062 196.137C191.062 196.742 191.969 198.87 190.906 199.182C189.842 199.485 188.778 197.054 187.714 197.054C186.65 197.054 184.366 199.963 186.338 201.934Z" fill="#2D232E" stroke="#2D232E" stroke-miterlimit="10" stroke-linecap="round" stroke-linejoin="round"/>
<path d="M179.984 194.956C179.535 195.464 179.164 196 178.872 196.586" stroke="white" stroke-width="0.5" stroke-miterlimit="10" stroke-linecap="round" stroke-linejoin="round"/>
<path d="M199.973 179.194C199.973 179.194 199.738 184.298 194.409 187.08C190.535 189.1 185.313 190.759 181.858 193.287" stroke="white" stroke-width="0.5" stroke-miterlimit="10" stroke-linecap="round" stroke-linejoin="round"/>
<path d="M194.858 189.012C194.858 189.012 191.394 191.94 187.685 194.956C183.976 197.972 179.34 199.592 179.34 199.592" stroke="white" stroke-width="0.5" stroke-miterlimit="10" stroke-linecap="round" stroke-linejoin="round"/>
<path d="M186.094 202.344L188.056 202.832C188.056 202.832 187.568 205.77 189.529 207.976" fill="white"/>
<path d="M186.094 202.344L188.056 202.832C188.056 202.832 187.568 205.77 189.529 207.976" stroke="#2D232E" stroke-miterlimit="10" stroke-linecap="round" stroke-linejoin="round"/>
<path d="M188.358 197.103L202.149 193.687" stroke="#2D232E" stroke-miterlimit="10" stroke-linecap="round" stroke-linejoin="round"/>
<path d="M198.596 193.414L201.739 193.551C201.739 193.551 202.832 197.103 199.553 197.513" stroke="#2D232E" stroke-miterlimit="10" stroke-linecap="round" stroke-linejoin="round"/>
<path d="M184.698 362.155C184.698 362.155 197.396 370.177 199.621 370.177C201.847 370.177 202.959 372.178 201.847 372.403C200.734 372.627 193.824 372.852 189.149 373.066C184.474 373.291 181.351 372.842 178.676 372.842C176.002 372.842 172.889 373.066 171.552 372.393C170.214 371.729 172.44 364.146 172.44 362.809C172.44 361.471 183.137 361.257 184.698 362.155Z" fill="#2D232E" stroke="#2D232E" stroke-miterlimit="10" stroke-linecap="round" stroke-linejoin="round"/>
<path d="M201.085 370.499C196.156 372.129 188.163 371.056 183.361 370.616C179.564 370.275 173.65 370.197 171.171 370.177C171.073 371.319 171.142 372.188 171.561 372.403C172.898 373.066 176.022 372.851 178.686 372.851C181.36 372.851 184.474 373.3 189.159 373.076C193.834 372.851 200.744 372.627 201.856 372.412C202.686 372.227 202.276 371.075 201.085 370.499Z" fill="white" stroke="#2D232E" stroke-miterlimit="10" stroke-linecap="round" stroke-linejoin="round"/>
<path d="M194.722 307.108L184.708 357.323L186.797 362.545C186.797 362.545 184.698 365.932 180.462 366.82C176.227 367.708 171.776 367.708 171.776 367.708C171.776 367.708 170.663 362.135 171.327 361.471C171.991 360.808 172.215 358.133 172.215 358.133L178.003 307.557L194.722 307.108Z" fill="#68D4EC" stroke="#2D232E" stroke-miterlimit="10" stroke-linecap="round" stroke-linejoin="round"/>
<path d="M225.251 360.456C225.251 360.456 233.049 366.917 236.612 368.03C240.174 369.143 243.961 370.255 243.961 371.368C243.961 372.481 235.499 373.593 229.038 372.93C222.577 372.266 212.778 369.367 210.543 369.367C208.317 369.367 208.757 363.58 208.757 362.682C208.757 361.793 219.678 354.659 225.251 360.456Z" fill="#2D232E" stroke="#2D232E" stroke-miterlimit="10" stroke-linecap="round" stroke-linejoin="round"/>
<path d="M243.961 371.368C243.961 370.968 243.463 370.568 242.673 370.168C237.861 370.88 231.029 371.114 223.465 370.031C217.053 369.113 211.685 367.884 208.942 367.2C209.176 368.401 209.635 369.357 210.543 369.357C212.768 369.357 222.577 372.256 229.038 372.92C235.499 373.593 243.961 372.481 243.961 371.368Z" fill="white" stroke="#2D232E" stroke-miterlimit="10" stroke-linecap="round" stroke-linejoin="round"/>
<path d="M186.484 284.602C186.484 284.602 195.171 283.713 206.531 285.051C217.892 286.388 243.268 287.949 243.717 290.838C244.166 293.737 224.021 354.015 224.021 355.576C224.021 357.138 225.807 358.7 226.247 359.588C226.696 360.476 226.696 361.588 226.696 361.588C226.696 361.588 221.24 367.474 217.004 369.035C212.768 370.597 209.215 369.143 208.327 369.143C207.439 369.143 207.439 363.131 208.103 360.232C208.766 357.333 209.889 349.984 210.104 349.32C210.328 348.656 222.557 305.771 222.557 305.771C222.557 305.771 189.383 311.12 169.551 308.894C149.718 306.669 147.718 303.546 146.605 298.871C145.492 294.196 147.718 284.836 147.718 284.836L186.484 284.602Z" fill="#68D4EC" stroke="#2D232E" stroke-miterlimit="10" stroke-linecap="round" stroke-linejoin="round"/>
<path d="M183.976 299.037C183.478 299.749 182.971 300.374 182.473 300.872" stroke="#2D232E" stroke-miterlimit="10" stroke-linecap="round" stroke-linejoin="round"/>
<path d="M190.047 287.051C190.047 287.051 188.046 292.156 185.625 296.411" stroke="#2D232E" stroke-miterlimit="10" stroke-linecap="round" stroke-linejoin="round"/>
<path d="M187.372 289.286C187.372 289.286 183.81 295.972 175.787 299.085" stroke="#2D232E" stroke-miterlimit="10" stroke-linecap="round" stroke-linejoin="round"/>
<path d="M237.968 301.555C238.73 301.262 239.462 300.959 240.155 300.647L237.968 301.555Z" fill="white"/>
<path d="M237.968 301.555C238.73 301.262 239.462 300.959 240.155 300.647" stroke="#2D232E" stroke-miterlimit="10" stroke-linecap="round" stroke-linejoin="round"/>
<path d="M222.557 305.771C222.557 305.771 229.048 304.551 235.187 302.54L222.557 305.771Z" fill="white"/>
<path d="M222.557 305.771C222.557 305.771 229.048 304.551 235.187 302.54" stroke="#2D232E" stroke-miterlimit="10" stroke-linecap="round" stroke-linejoin="round"/>
<path d="M248.285 231.78C248.753 229.916 249.524 230.072 248.909 229.448C248.05 228.589 247.357 229.604 244.869 231C242.38 232.395 239.901 234.103 239.901 234.103C239.901 234.103 239.901 233.479 240.525 232.708C241.15 231.927 241.462 230.219 241.462 229.292C241.462 228.355 240.682 228.511 240.379 229.448C240.067 230.385 237.275 232.093 237.119 232.864C236.963 233.645 236.407 236.709 236.407 236.709C235.519 238.046 235.519 244.283 235.519 244.283L217.472 257.869L208.337 268.566C208.337 268.566 212.348 275.027 214.574 274.139C216.799 273.251 217.912 272.353 223.26 267.902C227.789 264.125 239.139 246.694 239.139 246.694C239.139 246.694 243.492 243.893 244.732 242.497C246.586 240.408 248.119 237.08 248.109 234.299C248.089 233.508 248.07 232.659 248.285 231.78Z" fill="white" stroke="#2D232E" stroke-miterlimit="10" stroke-linecap="round" stroke-linejoin="round"/>
<path d="M164.602 211.167C164.602 211.167 166.32 204.726 173.621 206.014C180.921 207.302 186.504 213.315 187.792 215.462C189.081 217.609 164.173 214.603 164.173 214.603L164.602 211.167Z" fill="white" stroke="#2D232E" stroke-miterlimit="10" stroke-linecap="round" stroke-linejoin="round"/>
<path d="M206.688 267.424C206.688 267.424 204.999 269.249 206.688 272.148C207.859 274.149 209.899 275.681 213.822 274.998C217.502 274.363 223.006 265.277 223.006 258.835C223.006 252.394 218.282 251.964 216.565 253.252C214.847 254.541 206.688 267.424 206.688 267.424Z" fill="white" stroke="#2D232E" stroke-miterlimit="10" stroke-linecap="round" stroke-linejoin="round"/>
<path d="M167.765 210.416C167.765 210.416 150.392 218.663 147.932 220.215C145.483 221.776 143.921 241.16 143.921 244.498C143.921 247.836 146.371 280.59 147.044 286.163C147.708 291.736 169.102 295.523 176.227 293.512C183.351 291.512 190.261 286.388 190.261 284.602C190.261 282.816 189.598 267.668 190.037 264.769C190.486 261.871 194.497 249.622 194.497 249.622L206.658 269.025C206.658 269.025 207.937 271.406 212.456 269.532C218.917 266.858 219.454 256.522 219.454 256.522C219.454 256.522 212.329 244.049 210.318 237.812C208.317 231.576 207.42 226.9 206.531 225.778C205.643 224.665 185.586 215.306 182.024 212.856C178.462 210.416 174.001 208.639 167.765 210.416Z" fill="white" stroke="#2D232E" stroke-miterlimit="10" stroke-linecap="round" stroke-linejoin="round"/>
<path d="M194.497 249.632L188.71 241.16" stroke="#2D232E" stroke-miterlimit="10" stroke-linecap="round" stroke-linejoin="round"/>
<path d="M193.56 248.421L183.361 243.395" stroke="#2D232E" stroke-miterlimit="10" stroke-linecap="round" stroke-linejoin="round"/>
<path d="M163.334 312.3L172.235 375.565C172.323 376.189 172.928 376.599 173.533 376.453C174.05 376.326 174.401 375.848 174.353 375.311L168.077 311.256L163.334 312.3Z" fill="#2D232E" stroke="#2D232E" stroke-miterlimit="10" stroke-linecap="round" stroke-linejoin="round"/>
<path d="M137.762 312.818L122.888 374.95C122.742 375.565 123.152 376.17 123.776 376.258C124.303 376.336 124.801 376.004 124.957 375.497L142.223 315.199L137.762 312.818Z" fill="#2D232E" stroke="#2D232E" stroke-miterlimit="10" stroke-linecap="round" stroke-linejoin="round"/>
<path d="M164.778 312.047L155.311 375.233C155.213 375.858 155.682 376.424 156.306 376.453C156.843 376.482 157.312 376.111 157.409 375.594L169.424 314.038L164.778 312.047Z" fill="#2D232E" stroke="#2D232E" stroke-miterlimit="10" stroke-linecap="round" stroke-linejoin="round"/>
<path d="M198.294 312.3L207.195 375.565C207.283 376.189 207.888 376.599 208.493 376.453C209.01 376.326 209.362 375.848 209.313 375.311L203.037 311.256L198.294 312.3Z" fill="#2D232E" stroke="#2D232E" stroke-miterlimit="10" stroke-linecap="round" stroke-linejoin="round"/>
<path d="M123.679 246.665L134.512 317.102H211.558C211.558 317.102 212.7 296.811 209.303 289.628C205.907 282.454 163.968 297.836 162.455 297.456C161.323 297.172 162.982 260.807 165.042 246.596C165.657 242.341 162.358 238.544 158.063 238.544H130.638C126.324 238.544 123.015 242.39 123.679 246.665Z" fill="#68D4EC" stroke="#2D232E" stroke-miterlimit="10" stroke-linecap="round" stroke-linejoin="round"/>
<path d="M209.303 289.628C205.907 282.454 163.968 297.836 162.455 297.456C161.323 297.172 162.982 260.807 165.042 246.596C165.647 242.429 162.494 238.71 158.327 238.554C154.14 238.71 150.977 242.477 151.622 246.664L162.455 317.102H211.558C211.558 317.102 212.7 296.802 209.303 289.628Z" fill="#2D232E" stroke="#2D232E" stroke-miterlimit="10" stroke-linecap="round" stroke-linejoin="round"/>
<path d="M248.285 231.78C248.285 231.78 247.045 233.02 245.181 235.196L248.285 231.78Z" fill="white"/>
<path d="M248.285 231.78C248.285 231.78 247.045 233.02 245.181 235.196" stroke="#2D232E" stroke-miterlimit="10" stroke-linecap="round" stroke-linejoin="round"/>
<path d="M248.089 234.299C248.089 234.299 246.577 237.363 245.64 238.759L248.089 234.299Z" fill="white"/>
<path d="M248.089 234.299C248.089 234.299 246.577 237.363 245.64 238.759" stroke="#2D232E" stroke-miterlimit="10" stroke-linecap="round" stroke-linejoin="round"/>
<path d="M39.3914 269.903C41.0115 270.606 44.9741 270.518 44.9741 270.518C45.0131 270.518 44.125 267.922 44.0469 267.766C43.1782 265.95 40.4259 262.944 38.1909 263.247C36.5805 263.461 35.6825 265.072 36.0437 266.594C36.4243 268.146 38.0054 269.298 39.3914 269.903Z" fill="#474448"/>
<path d="M91.2649 256.425C89.0202 256.181 86.3557 259.255 85.5358 261.1C85.4675 261.256 84.6477 263.871 84.6867 263.871C84.6867 263.871 84.7257 263.871 84.7355 263.871C84.3061 264.35 83.8571 264.877 83.3789 265.453C82.5005 266.526 81.5245 267.756 80.5387 269.161C79.5529 270.567 78.5282 272.119 77.601 273.846C76.664 275.583 75.7661 277.457 75.0829 279.507C75.0731 279.526 75.0731 279.556 75.0634 279.575C75.0731 278.912 75.0438 277.067 75.0243 276.921C74.7608 274.92 73.0918 271.211 70.8763 270.801C69.2757 270.508 67.9288 271.757 67.7922 273.309C67.6653 274.9 68.817 276.481 69.9394 277.487C71.2082 278.619 74.7218 279.712 74.995 279.8C74.3704 281.761 73.8824 283.821 73.5115 285.929C73.2968 287.139 73.1211 288.359 72.9552 289.589C72.9454 289.013 72.9357 288.506 72.9259 288.437C72.6624 286.437 70.9934 282.728 68.7779 282.318C67.1773 282.025 65.8304 283.274 65.6938 284.826C65.5669 286.417 66.7186 287.998 67.841 289.003C68.9829 290.018 71.9597 291.014 72.7502 291.268C72.6917 291.736 72.6331 292.214 72.5746 292.683C72.3013 294.947 72.0475 297.212 71.7157 299.417C71.5986 300.198 71.4619 300.959 71.3253 301.721C71.3155 301.213 71.3058 300.784 71.296 300.725C71.0325 298.724 69.3635 295.016 67.148 294.606C65.5474 294.313 64.2005 295.562 64.0638 297.114C63.937 298.705 65.0886 300.286 66.211 301.291C67.2944 302.257 70.037 303.204 70.9739 303.507C70.808 304.288 70.6421 305.068 70.4469 305.81C70.3005 306.318 70.2029 306.815 70.0272 307.313C69.8613 307.811 69.7051 308.309 69.549 308.797C69.2074 309.724 68.8658 310.69 68.5144 311.588C68.2704 312.213 68.0362 312.808 67.7922 313.413C67.919 312.642 68.124 311.12 68.124 310.993C68.1533 309.656 67.675 307.479 66.7381 305.947C66.7478 305.752 66.7283 305.556 66.699 305.351C66.455 303.809 65.0008 302.667 63.4294 303.087C61.253 303.663 59.867 307.499 59.7597 309.509C59.7499 309.626 59.828 310.924 59.8963 311.744C59.789 311.266 59.6816 310.807 59.5645 310.319C59.34 309.353 59.0765 308.396 58.8032 307.372C58.6568 306.884 58.5006 306.386 58.3542 305.878C58.2176 305.381 58.0029 304.863 57.8272 304.356C57.3978 303.175 56.9 302.004 56.373 300.833C57.2123 300.628 60.1989 299.866 61.3994 298.949C62.5901 298.031 63.8589 296.538 63.8491 294.937C63.8394 293.376 62.5803 292.029 60.9699 292.205C58.7251 292.449 56.7829 296.021 56.373 297.992C56.3437 298.119 56.2168 299.564 56.1582 300.364C55.8362 299.661 55.5238 298.959 55.1725 298.266C54.1672 296.245 53.0936 294.235 52.0298 292.224C51.7077 291.609 51.3856 290.994 51.0635 290.37C51.3661 290.301 54.9382 289.472 56.2754 288.447C57.4661 287.53 58.7349 286.036 58.7251 284.436C58.7154 282.874 57.4563 281.527 55.8459 281.703C53.6011 281.947 51.6589 285.519 51.249 287.491C51.2197 287.637 51.0342 289.726 51.005 290.253C50.3022 288.896 49.6093 287.53 48.9846 286.163C48.116 284.27 47.3742 282.376 46.7789 280.473C46.9155 280.444 50.6438 279.595 52.02 278.541C53.2107 277.623 54.4795 276.13 54.4698 274.529C54.46 272.968 53.201 271.621 51.5906 271.797C49.3458 272.041 47.4035 275.613 46.9936 277.584C46.9643 277.74 46.7594 279.985 46.7496 280.395C46.7106 280.278 46.6618 280.171 46.6325 280.053C46.0274 278.023 45.7053 275.974 45.4906 274.051C45.3637 272.929 45.3051 271.855 45.2758 270.801C45.9883 270.713 49.2286 270.284 50.5755 269.474C51.8638 268.693 53.2888 267.346 53.445 265.755C53.6011 264.203 52.508 262.72 50.8781 262.72C48.6235 262.72 46.2909 266.058 45.676 267.971C45.6467 268.078 45.4125 269.171 45.2661 269.971C45.2563 269.493 45.2466 269.005 45.2466 268.556C45.2466 266.848 45.3539 265.287 45.4613 263.901C45.5296 263.11 45.6077 262.407 45.6858 261.744C46.3397 261.295 48.9456 259.45 49.7557 258.133C50.5365 256.844 51.1806 254.99 50.595 253.516C50.0192 252.062 48.36 251.261 46.9155 252.003C44.9147 253.038 44.3877 257.078 44.7195 259.06C44.7488 259.235 45.5101 261.871 45.5394 261.841C45.5394 261.841 45.5686 261.822 45.5784 261.812C45.4906 262.446 45.4027 263.13 45.3246 263.881C45.188 265.267 45.0416 266.829 45.0026 268.537C44.9538 270.245 44.9538 272.109 45.1392 274.071C45.3149 276.032 45.5979 278.092 46.164 280.18C46.1738 280.2 46.1835 280.229 46.1835 280.249C45.8322 279.692 44.7878 278.17 44.6902 278.053C43.3726 276.53 39.9274 274.363 37.8485 275.242C36.3552 275.876 35.916 277.672 36.6675 279.038C37.4386 280.434 39.2734 281.127 40.757 281.342C42.4357 281.586 45.9688 280.561 46.2518 280.483C46.8082 282.464 47.5402 284.445 48.399 286.417C48.887 287.539 49.4141 288.662 49.9509 289.774C49.6288 289.306 49.336 288.886 49.2872 288.828C47.9696 287.305 44.5243 285.138 42.4454 286.017C40.9522 286.651 40.513 288.447 41.2645 289.813C42.0355 291.209 43.8704 291.902 45.3539 292.117C46.8667 292.341 49.8923 291.521 50.6926 291.297C50.9074 291.726 51.1123 292.146 51.327 292.576C52.3518 294.615 53.3766 296.645 54.3331 298.666C54.665 299.378 54.9675 300.091 55.2798 300.803C54.9968 300.384 54.743 300.032 54.704 299.983C53.3864 298.461 49.9411 296.294 47.8622 297.173C46.369 297.807 45.9298 299.603 46.6813 300.969C47.4523 302.365 49.2872 303.058 50.7707 303.273C52.2152 303.487 55.0163 302.755 55.963 302.492C56.2558 303.233 56.5486 303.975 56.8024 304.697C56.9586 305.195 57.1538 305.673 57.2806 306.181C57.4173 306.688 57.5637 307.186 57.7003 307.684C57.9346 308.65 58.1786 309.646 58.3738 310.583C58.5202 311.237 58.647 311.871 58.7739 312.505C58.4518 311.793 57.7784 310.407 57.7101 310.3C56.6365 308.592 53.5621 305.927 51.3758 306.484C49.8045 306.884 49.092 308.592 49.6288 310.056C50.1754 311.549 51.8834 312.515 53.3278 312.954C54.909 313.442 58.4226 312.993 58.8618 312.935C59.0765 313.979 59.2619 315.004 59.4376 315.97C60.033 319.318 60.3941 322.129 60.6186 324.1C60.6576 324.452 60.6966 324.764 60.7259 325.057H53.933L56.412 373.437H67.9776L70.4566 325.057H64.1322C64.181 324.959 64.22 324.871 64.2688 324.764C65.1374 322.958 66.3379 320.353 67.636 317.181C68.0459 316.175 68.4754 315.092 68.895 313.979C69.3147 314.067 72.7893 314.77 74.4094 314.409C75.8734 314.077 77.6595 313.247 78.3134 311.793C78.9576 310.368 78.3818 308.621 76.8397 308.104C74.7022 307.381 71.4326 309.812 70.2419 311.432C70.1736 311.529 69.5197 312.652 69.1195 313.364C69.2854 312.906 69.4611 312.466 69.627 311.998C69.9686 311.071 70.281 310.134 70.6226 309.119C70.769 308.631 70.9154 308.133 71.0715 307.625C71.2277 307.128 71.335 306.591 71.4717 306.064C71.7645 304.844 71.9987 303.595 72.2037 302.326C73.0235 302.619 75.932 303.634 77.435 303.526C78.9381 303.419 80.8218 302.872 81.6904 301.535C82.5395 300.227 82.2369 298.412 80.7925 297.661C78.7917 296.626 75.1902 298.529 73.7653 299.954C73.6774 300.042 72.7698 301.174 72.2818 301.809C72.3989 301.047 72.5258 300.286 72.6234 299.515C72.8966 297.28 73.1114 295.006 73.3358 292.741C73.4042 292.049 73.4822 291.356 73.5506 290.663C73.8434 290.77 77.2691 292.048 78.9674 291.931C80.4704 291.824 82.3541 291.277 83.2227 289.94C84.0718 288.633 83.7693 286.817 82.3248 286.066C80.324 285.031 76.7226 286.934 75.2976 288.359C75.1902 288.467 73.8824 290.096 73.5701 290.536C73.736 289.013 73.9019 287.491 74.1362 286.007C74.4582 283.948 74.8779 281.957 75.4342 280.044C75.5709 280.092 79.143 281.449 80.8803 281.322C82.3834 281.215 84.267 280.668 85.1357 279.331C85.9848 278.023 85.6822 276.208 84.2377 275.457C82.2369 274.422 78.6355 276.325 77.2106 277.75C77.1032 277.857 75.6978 279.624 75.4635 279.956C75.4928 279.839 75.5221 279.722 75.5514 279.605C76.1662 277.574 77.0251 275.691 77.9133 273.963C78.4306 272.958 78.9771 272.031 79.5237 271.133C80.1678 271.455 83.1056 272.88 84.677 272.948C86.18 273.007 88.1125 272.665 89.1275 271.435C90.1133 270.225 90.0157 268.39 88.659 267.492C86.7753 266.243 82.9982 267.746 81.4171 268.995C81.3293 269.064 80.5387 269.854 79.9629 270.44C80.2166 270.04 80.4704 269.62 80.7242 269.249C81.6709 267.824 82.6176 266.585 83.4667 265.492C83.9547 264.877 84.4134 264.32 84.8429 263.813C85.6334 263.803 88.825 263.705 90.2206 263.042C91.587 262.398 93.1389 261.207 93.4707 259.655C93.8221 258.181 92.8851 256.6 91.2649 256.425ZM66.4258 316.693C65.0691 319.816 63.8198 322.363 62.9219 324.13C62.7365 324.491 62.5803 324.803 62.4242 325.096H62.2778C62.229 324.754 62.1802 324.374 62.1216 323.954C61.8483 321.963 61.4189 319.133 60.7454 315.765C60.5405 314.701 60.2867 313.569 60.033 312.408C60.2965 312.301 61.7898 311.695 63.1171 310.954C64.2688 312.203 67.2261 313.667 67.6165 313.852C67.2261 314.838 66.8162 315.795 66.4258 316.693Z" fill="#474448"/>
<path d="M79.4464 270.772C79.4854 270.791 80.1686 268.136 80.1881 267.971C80.4614 265.98 79.827 261.958 77.7969 260.973C76.3329 260.27 74.6933 261.119 74.1662 262.583C73.6197 264.076 74.3126 265.921 75.1325 267.18C76.0889 268.664 79.4464 270.772 79.4464 270.772Z" fill="#474448"/>
<path d="M446.94 373.398H49.9517V378.259H446.94V373.398Z" fill="#474448"/>
</svg>
